<?xml version="1.0" encoding="UTF-8" standalone="no"?>
<svg
   xmlns:dc="http://purl.org/dc/elements/1.1/"
   xmlns:cc="http://creativecommons.org/ns#"
   xmlns:rdf="http://www.w3.org/1999/02/22-rdf-syntax-ns#"
   xmlns:svg="http://www.w3.org/2000/svg"
   xmlns="http://www.w3.org/2000/svg"
   xmlns:sodipodi="http://sodipodi.sourceforge.net/DTD/sodipodi-0.dtd"
   xmlns:inkscape="http://www.inkscape.org/namespaces/inkscape"
   width="128"
   height="128"
   viewBox="64 64 128 128"
   version="1.1"
   id="svg8"
   inkscape:version="1.0.2 (e86c8708, 2021-01-15)"
   sodipodi:docname="inkscape.svg">
  <defs
     id="defs2">
    <inkscape:path-effect
       effect="copy_rotate"
       starting_point="0,0"
       origin="129.5,109"
       id="path-effect1760"
       is_visible="true"
       lpeversion="1"
       method="normal"
       num_copies="4"
       starting_angle="50"
       rotation_angle="90"
       gap="-0.01"
       copies_to_360="true"
       mirror_copies="false"
       split_items="false" />
    <inkscape:path-effect
       effect="copy_rotate"
       starting_point="0,0"
       origin="130,101"
       id="path-effect3905"
       is_visible="true"
       lpeversion="1"
       method="normal"
       num_copies="1"
       starting_angle="50"
       rotation_angle="90"
       gap="-0.01"
       copies_to_360="true"
       mirror_copies="false"
       split_items="false" />
    <inkscape:path-effect
       effect="copy_rotate"
       starting_point="0,0"
       origin="17,-2"
       id="path-effect3812"
       is_visible="true"
       lpeversion="1"
       method="normal"
       num_copies="1"
       starting_angle="0"
       rotation_angle="60"
       gap="-0.01"
       copies_to_360="true"
       mirror_copies="false"
       split_items="false" />
    <inkscape:path-effect
       effect="mirror_symmetry"
       start_point="169.48317,160.72985"
       end_point="169.48317,167.89546"
       center_point="169.48317,164.31266"
       id="path-effect855"
       is_visible="true"
       lpeversion="1"
       mode="vertical"
       discard_orig_path="false"
       fuse_paths="false"
       oposite_fuse="false"
       split_items="false" />
    <inkscape:path-effect
       effect="mirror_symmetry"
       start_point="171.74548,160.42147"
       end_point="171.74548,161.78047"
       center_point="171.74548,161.10097"
       id="path-effect51"
       is_visible="true"
       lpeversion="1"
       mode="vertical"
       discard_orig_path="false"
       fuse_paths="false"
       oposite_fuse="false"
       split_items="false" />
    <inkscape:path-effect
       effect="mirror_symmetry"
       start_point="158.39875,167.76792"
       end_point="158.39875,175.4577"
       center_point="158.39875,171.61281"
       id="path-effect50"
       is_visible="true"
       lpeversion="1"
       mode="vertical"
       discard_orig_path="false"
       fuse_paths="false"
       oposite_fuse="false"
       split_items="false" />
    <inkscape:path-effect
       effect="copy_rotate"
       starting_point="129.75437,98.029039"
       origin="128.75437,98.03"
       id="path-effect905"
       is_visible="true"
       lpeversion="1"
       method="normal"
       num_copies="1"
       starting_angle="0"
       rotation_angle="90"
       gap="-0.01"
       copies_to_360="false"
       mirror_copies="false"
       split_items="false" />
    <inkscape:path-effect
       effect="mirror_symmetry"
       start_point="170.88044,160.41755"
       end_point="170.88044,192.00126"
       center_point="170.88044,176.20941"
       id="path-effect78"
       is_visible="true"
       lpeversion="1"
       mode="vertical"
       discard_orig_path="false"
       fuse_paths="false"
       oposite_fuse="false"
       split_items="false" />
    <inkscape:path-effect
       effect="mirror_symmetry"
       start_point="153.80754,68.13"
       end_point="150.21,165.04"
       center_point="153.80754,117.48634"
       id="path-effect76"
       is_visible="true"
       lpeversion="1"
       mode="vertical"
       discard_orig_path="false"
       fuse_paths="false"
       oposite_fuse="false"
       split_items="false" />
  </defs>
  <sodipodi:namedview
     id="base"
     pagecolor="#ffffff"
     bordercolor="#666666"
     borderopacity="1.0"
     inkscape:pageopacity="0"
     inkscape:pageshadow="2"
     inkscape:zoom="8.3689233"
     inkscape:cx="69.322175"
     inkscape:cy="56.183769"
     inkscape:document-units="mm"
     inkscape:current-layer="layer1"
     inkscape:document-rotation="0"
     showgrid="false"
     inkscape:window-width="1440"
     inkscape:window-height="847"
     inkscape:window-x="0"
     inkscape:window-y="25"
     inkscape:window-maximized="0"
     units="px"
     width="128px"
     inkscape:pagecheckerboard="false"
     showborder="true"
     borderlayer="false"
     inkscape:showpageshadow="false"
     showguides="true"
     inkscape:guide-bbox="true"
     inkscape:snap-global="true">
    <sodipodi:guide
       position="64,64"
       orientation="-1,0"
       id="guide10"
       inkscape:label="Center"
       inkscape:locked="true"
       inkscape:color="rgb(222,221,218)" />
    <sodipodi:guide
       position="64,-0.0012598425"
       orientation="0,1"
       id="guide12"
       inkscape:label=""
       inkscape:locked="true"
       inkscape:color="rgb(192,97,203)" />
    <sodipodi:guide
       position="64,128"
       orientation="0,1"
       id="guide14"
       inkscape:label=""
       inkscape:locked="true"
       inkscape:color="rgb(192,97,203)" />
  </sodipodi:namedview>
  <metadata
     id="metadata5">
    <rdf:RDF>
      <cc:Work
         rdf:about="">
        <dc:format>image/svg+xml</dc:format>
        <dc:type
           rdf:resource="http://purl.org/dc/dcmitype/StillImage" />
        <dc:title />
      </cc:Work>
    </rdf:RDF>
  </metadata>
  <g
     inkscape:groupmode="layer"
     id="layer2"
     inkscape:label="BG">
    <rect
       style="fill:#000000;stroke:#ffffff;stroke-width:0;stroke-linecap:butt;stroke-linejoin:bevel;stroke-miterlimit:4;stroke-dasharray:none;stroke-dashoffset:0"
       id="rect852"
       width="128"
       height="128"
       x="64"
       y="64" />
  </g>
  <g
     inkscape:label="Layer 1"
     inkscape:groupmode="layer"
     id="layer1">
    <g
       id="g62"
       style="stroke:#ffffff">
      <path
         id="path70"
         style="fill:none;stroke:#ffffff;stroke-width:1.99937;stroke-linecap:round;stroke-linejoin:round;stroke-miterlimit:4;stroke-dasharray:none;stroke-opacity:1;paint-order:normal"
         transform="translate(0,10.076265)"
         d="m 163.14827,181.92499 -0.99125,-11.80128 -12.11146,-10.33916 c -1.23184,-1.05158 -1.67612,-2.83561 -2.28888,-4.55517 -1.40132,-4.08397 -7.5626,-22.1604 -9.30089,-34.47113 -0.7358,-5.211 -1.70878,-10.16962 -1.16039,-14.27655 l 6.01183,-4.51873 2.61206,0.002 c 2.93964,0.002 0.61393,-5.991789 -3.23602,-9.664241 -3.84995,-3.672451 -13.06336,-3.746976 -14.68453,-12.233534 m 43.74674,71.637455 -1.83173,5.40752 c -4.72224,1.04229 -15.32948,0.51498 -21.40485,0.47881 -3.21774,-0.0192 -14.21226,0.15302 -20.5089,-0.009 m -35.14827,24.34301 0.99125,-11.80128 12.11146,-10.33916 c 1.23184,-1.05158 1.67612,-2.83561 2.28888,-4.55517 1.40132,-4.08397 7.5626,-22.1604 9.30089,-34.47113 0.7358,-5.211 1.70878,-10.16962 1.16039,-14.27655 l -6.01183,-4.51873 -2.61206,0.002 c -2.93964,0.002 -0.61393,-5.991789 3.23602,-9.664241 3.84995,-3.672451 13.06336,-3.746976 14.68453,-12.233534 m -43.74674,71.637455 1.83173,5.40752 c 4.72224,1.04229 15.32948,0.51498 21.40485,0.47881 3.21774,-0.0192 14.21226,0.15302 20.5089,-0.009"
         sodipodi:nodetypes="ccscsccszcccsc"
         inkscape:original-d="m 163.14827,181.92499 -0.99125,-11.80128 -12.11146,-10.33916 c -1.23184,-1.05158 -1.67612,-2.83561 -2.28888,-4.55517 -1.40132,-4.08397 -7.5626,-22.1604 -9.30089,-34.47113 -0.7358,-5.211 -1.70878,-10.16962 -1.16039,-14.27655 l 6.01183,-4.51873 2.61206,0.002 c 2.93964,0.002 0.61393,-5.991789 -3.23602,-9.664241 -3.84995,-3.672451 -13.06336,-3.746976 -14.68453,-12.233534 m 43.74674,71.637455 -1.83173,5.40752 c -4.72224,1.04229 -15.32948,0.51498 -21.40485,0.47881 -3.21774,-0.0192 -14.21226,0.15302 -20.5089,-0.009"
         inkscape:path-effect="#path-effect76" />
      <path
         style="fill:none;stroke:#ffffff;stroke-width:0.7;stroke-linecap:butt;stroke-linejoin:miter;stroke-miterlimit:4;stroke-dasharray:none;stroke-opacity:1"
         d="m 128,160.59825 c 7.80424,0.12425 12.54407,-0.0293 21.54032,0.12525 11.48452,0.19727 22.20516,1.05697 22.20516,1.05697 M 128,160.59825 c -7.80424,0.12425 -12.54407,-0.0293 -21.54032,0.12525 -11.48452,0.19727 -22.20516,1.05697 -22.20516,1.05697"
         id="path58"
         sodipodi:nodetypes="csc"
         inkscape:path-effect="#path-effect51"
         inkscape:original-d="m 128,160.59825 c 7.80424,0.12425 12.54407,-0.0293 21.54032,0.12525 11.48452,0.19727 22.20516,1.05697 22.20516,1.05697" />
    </g>
    <g
       id="g1758"
       inkscape:path-effect="#path-effect1760"
       style="opacity:1"
       transform="matrix(0.84731285,0,0,0.84731285,19.697505,16.574317)">
      <g
         inkscape:label="MajorXGridlines"
         id="g3715"
         style="stroke:#ffffff"
         transform="matrix(0.56996406,0,0,0.56996406,118.09219,116.14716)" />
      <g
         inkscape:label="MajorYGridlines"
         id="g3763"
         style="stroke:#ffffff"
         transform="matrix(0.56996406,0,0,0.56996406,118.09219,116.14716)" />
      <path
         id="rect3765"
         style="fill:none;stroke:#ffffff;stroke-width:0.284982"
         inkscape:label="Border"
         d="m 125.99566,120.95135 6.92345,-8.25104 47.52602,39.87907 -6.92344,8.25104 z m 45.54579,38.21745 6.92343,-8.25103 m -8.90371,6.58938 6.92343,-8.25103 m -8.90367,6.58941 6.92343,-8.25103 m -8.90366,6.58942 6.92343,-8.25103 m -8.90371,6.58938 6.92343,-8.25103 m -8.90367,6.58941 6.92343,-8.25103 m -8.90367,6.58942 6.92344,-8.25103 m -8.90372,6.58937 6.92343,-8.25103 m -8.90366,6.58942 6.92343,-8.25103 m -8.90367,6.58941 6.92343,-8.25103 m -8.90371,6.58938 6.92343,-8.25103 m -8.90367,6.58941 6.92344,-8.25102 m -8.90368,6.58941 6.92344,-8.25103 m -8.90371,6.58937 6.92343,-8.25102 m -8.90367,6.58941 6.92344,-8.25102 m -8.90368,6.5894 6.92344,-8.25102 m -8.90372,6.58937 6.92344,-8.25102 m -8.90368,6.5894 6.92344,-8.25102 m -8.90367,6.58941 6.92343,-8.25103 m -8.90371,6.58938 6.92344,-8.25103 m -8.90368,6.58941 6.92344,-8.25103 m -8.90369,6.58941 6.92344,-8.25103 m -8.90369,6.58939 6.92343,-8.25102 m -3.36493,-0.0114 47.52585,39.87892 m -48.91053,-38.22872 47.52585,39.87892 m -48.91054,-38.22871 47.52585,39.87892 m -48.91054,-38.22871 47.52585,39.87892 m -33.45485,-46.67572 -8.25104,-6.92345 39.87907,-47.526023 8.25104,6.923446 z M 179.6688,66.958553 171.41777,60.03512 m 6.58938,8.903712 -8.25103,-6.923433 m 6.58941,8.903673 -8.25103,-6.923433 m 6.58942,8.903666 -8.25103,-6.923434 m 6.58938,8.903712 -8.25103,-6.923433 m 6.58941,8.903673 -8.25103,-6.923433 m 6.58942,8.903666 -8.25103,-6.923433 m 6.58937,8.903719 -8.25103,-6.923433 m 6.58942,8.903666 -8.25103,-6.923434 m 6.58941,8.903674 -8.25103,-6.923433 m 6.58938,8.903711 -8.25103,-6.923433 m 6.58941,8.903666 -8.25102,-6.923433 m 6.58941,8.903673 -8.25103,-6.923433 m 6.58937,8.903712 -8.25102,-6.923434 m 6.58941,8.903666 -8.25102,-6.923433 m 6.5894,8.903673 -8.25102,-6.923433 m 6.58937,8.903712 -8.25102,-6.923433 m 6.5894,8.903677 -8.25102,-6.923437 m 6.58941,8.903667 -8.25103,-6.923435 m 6.58938,8.903715 -8.25103,-6.923436 m 6.58941,8.903676 -8.25103,-6.923436 m 6.58941,8.903686 -8.25103,-6.92344 m 6.58939,8.90369 -8.25102,-6.92343 m -0.0114,3.36493 39.87892,-47.525854 m -38.22872,48.910534 39.87892,-47.525853 m -38.22871,48.910543 39.87892,-47.52585 m -38.22871,48.91054 39.87892,-47.525854 m -46.67572,33.454855 -6.92345,8.251039 -47.526023,-39.879068 6.923446,-8.251041 z M 87.458553,58.831199 80.53512,67.082226 m 8.903712,-6.589376 -6.923433,8.251027 m 8.903673,-6.589408 -6.923433,8.251027 m 8.903666,-6.589414 -6.923434,8.251026 m 8.903712,-6.589376 -6.923433,8.251027 m 8.903673,-6.589408 -6.923433,8.251027 m 8.903666,-6.589414 -6.923433,8.251026 m 8.903717,-6.589369 -6.923431,8.251027 m 8.903661,-6.589414 -6.923429,8.251026 m 8.903669,-6.589408 -6.923428,8.251027 m 8.903708,-6.589376 -6.92343,8.251027 m 8.90367,-6.589414 -6.92344,8.251026 m 8.90368,-6.589407 -6.92344,8.251026 m 8.90371,-6.589375 -6.92343,8.251026 m 8.90367,-6.589414 -6.92344,8.251026 m 8.90368,-6.589407 -6.92344,8.251026 m 8.90372,-6.589375 -6.92344,8.251026 m 8.90368,-6.589407 -6.92344,8.251026 m 8.90367,-6.589414 -6.92343,8.251026 m 8.90371,-6.589375 -6.92344,8.251026 m 8.90368,-6.589407 -6.92344,8.251031 m 8.90369,-6.589406 -6.92344,8.251026 m 8.90369,-6.589394 -6.92343,8.251024 m 3.36493,0.0114 L 79.939736,63.770557 M 128.85027,101.99928 81.324417,62.12036 M 130.23496,100.34907 82.70911,60.470147 M 131.61965,98.698864 84.093796,58.819941 m 33.454854,46.675719 8.25104,6.92345 -39.879068,47.52602 -8.251041,-6.92344 z m -38.217451,45.54579 8.251027,6.92343 m -6.589376,-8.90371 8.251027,6.92343 m -6.589408,-8.90367 8.251027,6.92343 m -6.589414,-8.90366 8.251026,6.92343 m -6.589376,-8.90371 8.251027,6.92343 m -6.589408,-8.90367 8.251027,6.92343 m -6.589414,-8.90367 8.251026,6.92344 m -6.589369,-8.90372 8.251027,6.92343 m -6.589414,-8.90366 8.251026,6.92343 m -6.589408,-8.90367 8.251028,6.92343 m -6.589377,-8.90371 8.251027,6.92343 m -6.589414,-8.90367 8.251024,6.92344 m -6.589405,-8.90368 8.251025,6.92344 m -6.58937,-8.90371 8.25102,6.92343 m -6.58941,-8.90367 8.25102,6.92344 m -6.5894,-8.90368 8.25102,6.92344 m -6.58937,-8.90372 8.25102,6.92344 m -6.5894,-8.90368 8.25102,6.92344 m -6.58941,-8.90367 8.25103,6.92343 m -6.58938,-8.90371 8.25103,6.92344 m -6.58941,-8.90368 8.25103,6.92344 m -6.58941,-8.90369 8.25103,6.92344 m -6.58939,-8.90369 8.25102,6.92343 m 0.0114,-3.36493 -39.878923,47.52585 m 38.228723,-48.91053 -39.87892,47.52585 m 38.22871,-48.91054 -39.878923,47.52585 M 119.19886,106.88035 79.319941,154.4062"
         inkscape:original-d="m 118.09219,113.9977 h 10.77097 v 62.04082 h -10.77097 z m 0,59.4558 h 10.77095 m -10.77095,-2.58507 h 10.77095 m -10.77095,-2.58502 h 10.77095 m -10.77095,-2.58501 h 10.77095 m -10.77095,-2.58507 h 10.77095 m -10.77095,-2.58502 h 10.77095 m -10.77095,-2.58501 h 10.77095 m -10.77095,-2.58508 h 10.77095 m -10.77095,-2.58501 h 10.77095 m -10.77095,-2.58502 h 10.77095 m -10.77095,-2.58507 h 10.77095 m -10.77095,-2.58501 h 10.77095 m -10.77095,-2.58502 h 10.77095 m -10.77095,-2.58507 h 10.77095 m -10.77095,-2.58501 h 10.77095 m -10.77095,-2.58502 h 10.77095 m -10.77095,-2.58507 h 10.77095 m -10.77095,-2.58502 h 10.77095 m -10.77095,-2.58501 h 10.77095 m -10.77095,-2.58507 h 10.77095 m -10.77095,-2.58502 h 10.77095 m -10.77095,-2.58503 h 10.77095 m -10.77095,-2.58504 h 10.77095 m -2.15418,-2.58503 v 62.04059 m -2.15418,-62.04059 v 62.04059 m -2.1542,-62.04059 v 62.04059 m -2.15419,-62.04059 v 62.04059" />
      <path
         style="fill:#ffffff;stroke:#000000;stroke-width:0;stroke-linecap:butt;stroke-linejoin:miter;stroke-miterlimit:4;stroke-dasharray:none;stroke-opacity:1"
         d="m 128.67744,109.28151 31.60485,26.51961 -0.82646,1.11935 20.03741,16.81339 -0.48893,0.5827 -51.70845,-43.38855 z m 1.10407,0.54105 26.51961,-31.604846 1.11935,0.826459 16.81339,-20.037417 0.5827,0.488937 -43.38855,51.708447 z m 0.54105,-1.10407 -31.604846,-26.519614 0.826459,-1.119351 -20.037417,-16.813389 0.488937,-0.582691 51.708447,43.388545 z m -1.10407,-0.54105 -26.51961,31.60485 -1.11935,-0.82646 -16.813394,20.03741 -0.582691,-0.48893 43.388545,-51.70845 z"
         id="path80"
         sodipodi:nodetypes="ccccccc"
         inkscape:original-d="m 128.75562,108.55083 v 41.2572 l -1.38871,0.0864 v 26.15699 h -0.76065 v -67.50059 z" />
    </g>
    <path
       style="fill:none;stroke:#ffffff;stroke-width:1px;stroke-linecap:butt;stroke-linejoin:miter;stroke-opacity:1"
       d="m 163.77375,168.39292 -3.84239,9.5015 -4.83212,-3.9334 2.79969,-6.25835 -3.22077,0.28197 -2.0174,4.11039 m -60.43451,-3.70211 3.84239,9.5015 4.83212,-3.9334 -2.79969,-6.25835 3.22077,0.28197 2.0174,4.11039"
       id="path43"
       sodipodi:nodetypes="cccccc"
       inkscape:path-effect="#path-effect50"
       inkscape:original-d="m 163.77375,168.39292 -3.84239,9.5015 -4.83212,-3.9334 2.79969,-6.25835 -3.22077,0.28197 -2.0174,4.11039" />
    <path
       style="fill:none;stroke:#ffffff;stroke-width:0.5;stroke-linecap:butt;stroke-linejoin:round;stroke-miterlimit:4;stroke-dasharray:none;stroke-opacity:1"
       d="m 128,167.65779 8.3842,-6.92794 8.98569,7.16561 6.82353,-7.07685 5.70551,6.88406 4.93572,-6.51058 2.97124,5.96239 3.67728,-5.46623 M 128,167.65779 l -8.3842,-6.92794 -8.98569,7.16561 -6.82353,-7.07685 -5.70551,6.88406 -4.93572,-6.51058 -2.97124,5.96239 -3.67728,-5.46623"
       id="path853"
       sodipodi:nodetypes="cccccccc"
       inkscape:path-effect="#path-effect855"
       inkscape:original-d="m 128,167.65779 8.3842,-6.92794 8.98569,7.16561 6.82353,-7.07685 5.70551,6.88406 4.93572,-6.51058 2.97124,5.96239 3.67728,-5.46623" />
  </g>
</svg>
