<?xml version="1.0" encoding="UTF-8" standalone="no"?>
<svg
   xmlns:dc="http://purl.org/dc/elements/1.1/"
   xmlns:cc="http://creativecommons.org/ns#"
   xmlns:rdf="http://www.w3.org/1999/02/22-rdf-syntax-ns#"
   xmlns:svg="http://www.w3.org/2000/svg"
   xmlns="http://www.w3.org/2000/svg"
   xmlns:xlink="http://www.w3.org/1999/xlink"
   xmlns:sodipodi="http://sodipodi.sourceforge.net/DTD/sodipodi-0.dtd"
   xmlns:inkscape="http://www.inkscape.org/namespaces/inkscape"
   width="128"
   height="128"
   viewBox="64 64 128 128"
   version="1.1"
   id="svg8"
   inkscape:version="1.0.2 (e86c8708, 2021-01-15)"
   sodipodi:docname="inkscape.svg">
  <defs
     id="defs2">
    <marker
       style="overflow:visible;"
       id="Arrow1Lend"
       refX="0.0"
       refY="0.0"
       orient="auto"
       inkscape:stockid="Arrow1Lend"
       inkscape:isstock="true">
      <path
         transform="scale(0.8) rotate(180) translate(12.5,0)"
         style="fill-rule:evenodd;stroke:#ffffff;stroke-width:1pt;stroke-opacity:1;fill:#ffffff;fill-opacity:1"
         d="M 0.0,0.0 L 5.0,-5.0 L -12.5,0.0 L 5.0,5.0 L 0.0,0.0 z "
         id="path2056" />
    </marker>
    <marker
       style="overflow:visible"
       id="Arrow1Lstart"
       refX="0.0"
       refY="0.0"
       orient="auto"
       inkscape:stockid="Arrow1Lstart"
       inkscape:isstock="true">
      <path
         transform="scale(0.8) translate(12.5,0)"
         style="fill-rule:evenodd;stroke:#000000;stroke-width:1.0pt"
         d="M 0.0,0.0 L 5.0,-5.0 L -12.5,0.0 L 5.0,5.0 L 0.0,0.0 z "
         id="path2053" />
    </marker>
    <inkscape:path-effect
       effect="mirror_symmetry"
       start_point="135.92399,131.68837"
       end_point="135.92399,167.74443"
       center_point="135.92399,149.7164"
       id="path-effect2047"
       is_visible="true"
       lpeversion="1"
       mode="vertical"
       discard_orig_path="false"
       fuse_paths="false"
       oposite_fuse="false"
       split_items="false" />
    <linearGradient
       inkscape:collect="always"
       id="linearGradient1885">
      <stop
         style="stop-color:#ffffff;stop-opacity:0"
         offset="0"
         id="stop1881" />
      <stop
         style="stop-color:#000000;stop-opacity:0;"
         offset="1"
         id="stop1883" />
    </linearGradient>
    <linearGradient
       inkscape:collect="always"
       id="linearGradient1766">
      <stop
         style="stop-color:#126fdc;stop-opacity:0.2"
         offset="0"
         id="stop1762" />
      <stop
         style="stop-color:#fffbff;stop-opacity:0"
         offset="1"
         id="stop1764" />
    </linearGradient>
    <inkscape:path-effect
       effect="copy_rotate"
       starting_point="0,0"
       origin="129.5,109"
       id="path-effect1760"
       is_visible="true"
       lpeversion="1"
       method="normal"
       num_copies="4"
       starting_angle="50"
       rotation_angle="90"
       gap="-0.01"
       copies_to_360="true"
       mirror_copies="false"
       split_items="false" />
    <inkscape:path-effect
       effect="copy_rotate"
       starting_point="0,0"
       origin="130,101"
       id="path-effect3905"
       is_visible="true"
       lpeversion="1"
       method="normal"
       num_copies="1"
       starting_angle="50"
       rotation_angle="90"
       gap="-0.01"
       copies_to_360="true"
       mirror_copies="false"
       split_items="false" />
    <inkscape:path-effect
       effect="copy_rotate"
       starting_point="0,0"
       origin="17,-2"
       id="path-effect3812"
       is_visible="true"
       lpeversion="1"
       method="normal"
       num_copies="1"
       starting_angle="0"
       rotation_angle="60"
       gap="-0.01"
       copies_to_360="true"
       mirror_copies="false"
       split_items="false" />
    <inkscape:path-effect
       effect="mirror_symmetry"
       start_point="169.48317,160.72985"
       end_point="169.48317,167.89546"
       center_point="169.48317,164.31266"
       id="path-effect855"
       is_visible="true"
       lpeversion="1"
       mode="vertical"
       discard_orig_path="false"
       fuse_paths="false"
       oposite_fuse="false"
       split_items="false" />
    <inkscape:path-effect
       effect="mirror_symmetry"
       start_point="171.74548,160.42147"
       end_point="171.74548,161.78047"
       center_point="171.74548,161.10097"
       id="path-effect51"
       is_visible="true"
       lpeversion="1"
       mode="vertical"
       discard_orig_path="false"
       fuse_paths="false"
       oposite_fuse="false"
       split_items="false" />
    <inkscape:path-effect
       effect="mirror_symmetry"
       start_point="158.39875,167.76792"
       end_point="158.39875,175.4577"
       center_point="158.39875,171.61281"
       id="path-effect50"
       is_visible="true"
       lpeversion="1"
       mode="vertical"
       discard_orig_path="false"
       fuse_paths="false"
       oposite_fuse="false"
       split_items="false" />
    <inkscape:path-effect
       effect="copy_rotate"
       starting_point="129.75437,98.029039"
       origin="128.75437,98.03"
       id="path-effect905"
       is_visible="true"
       lpeversion="1"
       method="normal"
       num_copies="1"
       starting_angle="0"
       rotation_angle="90"
       gap="-0.01"
       copies_to_360="false"
       mirror_copies="false"
       split_items="false" />
    <inkscape:path-effect
       effect="mirror_symmetry"
       start_point="170.88044,160.41755"
       end_point="170.88044,192.00126"
       center_point="170.88044,176.20941"
       id="path-effect78"
       is_visible="true"
       lpeversion="1"
       mode="vertical"
       discard_orig_path="false"
       fuse_paths="false"
       oposite_fuse="false"
       split_items="false" />
    <inkscape:path-effect
       effect="mirror_symmetry"
       start_point="153.80754,68.13"
       end_point="150.21,165.04"
       center_point="153.80754,117.48634"
       id="path-effect76"
       is_visible="true"
       lpeversion="1"
       mode="vertical"
       discard_orig_path="false"
       fuse_paths="false"
       oposite_fuse="false"
       split_items="false" />
    <linearGradient
       inkscape:collect="always"
       xlink:href="#linearGradient1766"
       id="linearGradient1768"
       x1="99.233444"
       y1="116.34605"
       x2="140.27876"
       y2="111.54804"
       gradientUnits="userSpaceOnUse" />
    <radialGradient
       inkscape:collect="always"
       xlink:href="#linearGradient1885"
       id="radialGradient1887"
       cx="128"
       cy="109.25253"
       fx="128"
       fy="109.25253"
       r="64"
       gradientUnits="userSpaceOnUse"
       gradientTransform="matrix(1.0056038,0,0,1,-0.71729036,2.5999975e-7)" />
  </defs>
  <sodipodi:namedview
     id="base"
     pagecolor="#000000"
     bordercolor="#666666"
     borderopacity="1.0"
     inkscape:pageopacity="1"
     inkscape:pageshadow="2"
     inkscape:zoom="36.806148"
     inkscape:cx="66.495713"
     inkscape:cy="88.048696"
     inkscape:document-units="mm"
     inkscape:current-layer="layer1"
     inkscape:document-rotation="0"
     showgrid="false"
     inkscape:window-width="1440"
     inkscape:window-height="847"
     inkscape:window-x="0"
     inkscape:window-y="25"
     inkscape:window-maximized="0"
     units="px"
     width="128px"
     inkscape:pagecheckerboard="false"
     showborder="true"
     borderlayer="false"
     inkscape:showpageshadow="false"
     showguides="true"
     inkscape:guide-bbox="true"
     inkscape:snap-global="true">
    <sodipodi:guide
       position="64,64"
       orientation="-1,0"
       id="guide10"
       inkscape:label="Center"
       inkscape:locked="true"
       inkscape:color="rgb(222,221,218)" />
    <sodipodi:guide
       position="64,-0.0012598425"
       orientation="0,1"
       id="guide12"
       inkscape:label=""
       inkscape:locked="true"
       inkscape:color="rgb(192,97,203)" />
    <sodipodi:guide
       position="64,128"
       orientation="0,1"
       id="guide14"
       inkscape:label=""
       inkscape:locked="true"
       inkscape:color="rgb(192,97,203)" />
  </sodipodi:namedview>
  <metadata
     id="metadata5">
    <rdf:RDF>
      <cc:Work
         rdf:about="">
        <dc:format>image/svg+xml</dc:format>
        <dc:type
           rdf:resource="http://purl.org/dc/dcmitype/StillImage" />
        <dc:title />
      </cc:Work>
    </rdf:RDF>
  </metadata>
  <!-- <g
     inkscape:groupmode="layer"
     id="layer2"
     inkscape:label="BG">
    <rect
       style="opacity:1;fill:#000000;fill-opacity:1;stroke:#ffffff;stroke-width:0;stroke-linecap:butt;stroke-linejoin:bevel;stroke-miterlimit:4;stroke-dasharray:none;stroke-dashoffset:0"
       id="rect1985"
       width="128"
       height="128"
       x="64"
       y="64" />
    <rect
       style="opacity:0;fill:url(#radialGradient1887);fill-opacity:1;stroke:#ffffff;stroke-width:0;stroke-linecap:butt;stroke-linejoin:bevel;stroke-miterlimit:4;stroke-dasharray:none;stroke-dashoffset:0"
       id="rect852"
       width="128"
       height="128"
       x="64"
       y="64" />
  </g> -->
  <g
     inkscape:label="Layer 1"
     inkscape:groupmode="layer"
     id="layer1">
    <path
       style="opacity:1;fill:url(#linearGradient1768);fill-opacity:1;stroke:#ffffff;stroke-width:1.99937;stroke-linecap:round;stroke-linejoin:round;stroke-miterlimit:4;stroke-dasharray:none;stroke-opacity:1;paint-order:normal"
       inkscape:path-effect="#path-effect76"
       inkscape:original-d="m 127.999,80.067195 c 1.62117,8.486558 10.83458,8.561083 14.68453,12.233534 3.84995,3.672452 6.17566,9.666241 3.23602,9.664241 l -2.61206,-0.002 -6.01183,4.51873 c -0.54839,4.10693 0.42459,9.06555 1.16039,14.27655 1.73829,12.31073 7.89957,30.38716 9.30089,34.47113 0.61276,1.71956 1.05704,3.50359 2.28888,4.55517 l 12.11146,10.33916 2.39669,14.43648 h -36.55371"
       transform="translate(0,10.076265)"
       d="m 127.999,80.067195 c 1.62117,8.486558 10.83458,8.561083 14.68453,12.233534 3.84995,3.672452 6.17566,9.666241 3.23602,9.664241 l -2.61206,-0.002 -6.01183,4.51873 c -0.54839,4.10693 0.42459,9.06555 1.16039,14.27655 1.73829,12.31073 7.89957,30.38716 9.30089,34.47113 0.61276,1.71956 1.05704,3.50359 2.28888,4.55517 l 12.11146,10.33916 2.39669,14.43648 H 128.00026 M 128.001,80.067195 c -1.62117,8.486558 -10.83458,8.561083 -14.68453,12.233534 -3.84995,3.672452 -6.17566,9.666241 -3.23602,9.664241 l 2.61206,-0.002 6.01183,4.51873 c 0.54839,4.10693 -0.42459,9.06555 -1.16039,14.27655 -1.73829,12.31073 -7.89957,30.38716 -9.30089,34.47113 -0.61276,1.71956 -1.05704,3.50359 -2.28888,4.55517 l -12.11146,10.33916 -2.39669,14.43648 h 36.55371"
       id="path1772" />
    <path
       style="fill:none;stroke:#ffffff;stroke-width:0.7;stroke-linecap:butt;stroke-linejoin:miter;stroke-miterlimit:4;stroke-dasharray:none;stroke-opacity:1"
       d="m 128,160.59825 c 7.80424,0.12425 12.54407,-0.0293 21.54032,0.12525 11.48452,0.19727 22.20516,1.05697 22.20516,1.05697 M 128,160.59825 c -7.80424,0.12425 -12.54407,-0.0293 -21.54032,0.12525 -11.48452,0.19727 -22.20516,1.05697 -22.20516,1.05697"
       id="path58"
       sodipodi:nodetypes="csc"
       inkscape:path-effect="#path-effect51"
       inkscape:original-d="m 128,160.59825 c 7.80424,0.12425 12.54407,-0.0293 21.54032,0.12525 11.48452,0.19727 22.20516,1.05697 22.20516,1.05697" />
    <path
       style="fill:none;fill-opacity:1;stroke:#ffffff;stroke-width:1.99937;stroke-linecap:round;stroke-linejoin:round;stroke-miterlimit:4;stroke-dasharray:none;stroke-opacity:1;paint-order:normal"
       inkscape:path-effect="#path-effect76"
       inkscape:original-d="m 171.74548,151.70465 -2.16381,5.7396 c -5.38641,0.31171 -14.9974,0.1829 -21.07277,0.14673 -3.21774,-0.0192 -14.21226,0.15302 -20.5089,-0.009"
       transform="translate(0,10.076265)"
       d="m 171.74548,151.70465 -2.16381,5.7396 c -5.38641,0.31171 -14.9974,0.1829 -21.07277,0.14673 -3.21774,-0.0192 -14.21226,0.15302 -20.5089,-0.009 m -43.74548,-5.87733 2.16381,5.7396 c 5.38641,0.31171 14.9974,0.1829 21.07277,0.14673 3.21774,-0.0192 14.21226,0.15302 20.5089,-0.009"
       id="path70"
       sodipodi:nodetypes="cccc" />
    <path
       style="fill:none;stroke:#ffffff;stroke-width:1px;stroke-linecap:butt;stroke-linejoin:miter;stroke-opacity:1"
       d="m 163.77375,168.39292 -3.84239,9.5015 -4.83212,-3.9334 2.79969,-6.25835 -3.22077,0.28197 -2.0174,4.11039 m -60.43451,-3.70211 3.84239,9.5015 4.83212,-3.9334 -2.79969,-6.25835 3.22077,0.28197 2.0174,4.11039"
       id="path43"
       sodipodi:nodetypes="cccccc"
       inkscape:path-effect="#path-effect50"
       inkscape:original-d="m 163.77375,168.39292 -3.84239,9.5015 -4.83212,-3.9334 2.79969,-6.25835 -3.22077,0.28197 -2.0174,4.11039" />
    <path
       style="fill:none;stroke:#ffffff;stroke-width:0.5;stroke-linecap:butt;stroke-linejoin:round;stroke-miterlimit:4;stroke-dasharray:none;stroke-opacity:1"
       d="m 128,167.65779 8.3842,-6.92794 8.98569,7.16561 6.82353,-7.07685 5.70551,6.88406 4.93572,-6.51058 2.97124,5.96239 3.67728,-5.46623 M 128,167.65779 l -8.3842,-6.92794 -8.98569,7.16561 -6.82353,-7.07685 -5.70551,6.88406 -4.93572,-6.51058 -2.97124,5.96239 -3.67728,-5.46623"
       id="path853"
       sodipodi:nodetypes="cccccccc"
       inkscape:path-effect="#path-effect855"
       inkscape:original-d="m 128,167.65779 8.3842,-6.92794 8.98569,7.16561 6.82353,-7.07685 5.70551,6.88406 4.93572,-6.51058 2.97124,5.96239 3.67728,-5.46623" />
    <g
       id="g2045"
       inkscape:path-effect="#path-effect2047"
       style="fill:#000000;opacity:1">
      <path
         style="fill:#000000;stroke:#ffffff;stroke-width:1px;stroke-linecap:round;stroke-linejoin:miter;stroke-opacity:1"
         d="m 128,176.88463 c 4.98438,0.11457 5.17779,2.95196 5.18479,7.29977 v 10.68822 H 128 m 0,-17.98799 c -4.98438,0.11457 -5.17779,2.95196 -5.18479,7.29977 v 10.68822 H 128"
         id="path2039"
         inkscape:original-d="m 128,176.88463 c 4.98438,0.11457 5.17779,2.95196 5.18479,7.29977 v 10.68822 l -5.18479,0"
         sodipodi:nodetypes="ccc" />
      <path
         style="opacity:1;fill:#000000;stroke:#ffffff;stroke-width:0.6;stroke-linecap:round;stroke-linejoin:round;stroke-miterlimit:0.4;stroke-dasharray:none;stroke-opacity:1"
         d="m 128,151.46786 h 3.47003 L 131.14829,142.58935 128,141.85877 m 0,9.60909 h -3.47003 l 0.32174,-8.87851 L 128,141.85877"
         id="path2041"
         sodipodi:nodetypes="cccc"
         inkscape:original-d="m 128,151.46786 h 3.47003 L 131.14829,142.58935 128,141.85877" />
      <path
         style="fill:#000000;stroke:#ffffff;stroke-width:0.5;stroke-linecap:round;stroke-linejoin:round;stroke-miterlimit:4;stroke-dasharray:none;stroke-opacity:1"
         d="m 128,130.29638 2.35131,0.43919 0.26516,6.57023 H 128 m 0,-7.00942 -2.35131,0.43919 -0.26516,6.57023 H 128"
         id="path1165"
         inkscape:original-d="m 128,130.29638 2.35131,0.43919 0.26516,6.57023 H 128"
         sodipodi:nodetypes="cccc" />
    </g>
    <g
       id="g1758"
       inkscape:path-effect="#path-effect1760"
       style="opacity:1"
       transform="matrix(0.84731285,0,0,0.84731285,19.697505,16.574317)">
      <g
         inkscape:label="MajorXGridlines"
         id="g3715"
         style="stroke:#ffffff"
         transform="matrix(0.56996406,0,0,0.56996406,118.09219,116.14716)" />
      <g
         inkscape:label="MajorYGridlines"
         id="g3763"
         style="stroke:#ffffff"
         transform="matrix(0.56996406,0,0,0.56996406,118.09219,116.14716)" />
      <path
         style="color:#000000;font-style:normal;font-variant:normal;font-weight:normal;font-stretch:normal;font-size:medium;line-height:normal;font-family:sans-serif;font-variant-ligatures:normal;font-variant-position:normal;font-variant-caps:normal;font-variant-numeric:normal;font-variant-alternates:normal;font-variant-east-asian:normal;font-feature-settings:normal;font-variation-settings:normal;text-indent:0;text-align:start;text-decoration:none;text-decoration-line:none;text-decoration-style:solid;text-decoration-color:#000000;letter-spacing:normal;word-spacing:normal;text-transform:none;writing-mode:lr-tb;direction:ltr;text-orientation:mixed;dominant-baseline:auto;baseline-shift:baseline;text-anchor:start;white-space:normal;shape-padding:0;shape-margin:0;inline-size:0;clip-rule:nonzero;display:inline;overflow:visible;visibility:visible;isolation:auto;mix-blend-mode:normal;color-interpolation:sRGB;color-interpolation-filters:linearRGB;solid-color:#000000;solid-opacity:1;vector-effect:none;fill:#ffffff;fill-opacity:1;fill-rule:nonzero;stroke:#000000;stroke-linecap:butt;stroke-linejoin:round;stroke-miterlimit:4;stroke-dasharray:none;stroke-dashoffset:0;stroke-opacity:1;color-rendering:auto;image-rendering:auto;shape-rendering:auto;text-rendering:auto;enable-background:accumulate;stop-color:#000000;stop-opacity:1;opacity:1;stroke-width:0.59010081;paint-order:stroke fill markers"
         d="m 125.78225,120.98441 c -0.0507,0.0603 -0.0428,0.15027 0.0176,0.20087 l 47.52617,39.87919 c 0.0603,0.0507 0.15027,0.0428 0.20087,-0.0176 l 6.92377,-8.25143 c 0.0507,-0.0603 0.0428,-0.15028 -0.0176,-0.20088 L 132.9069,112.7154 c -0.0603,-0.0507 -0.15028,-0.0428 -0.20087,0.0176 z m 0.31009,0.0741 1.20146,-1.43185 1.76101,1.47766 -1.20146,1.43185 z m 1.38475,-1.65029 1.20146,-1.43184 1.76101,1.47766 -1.20146,1.43184 z m 1.38476,-1.65029 1.20146,-1.43184 1.761,1.47766 -1.20146,1.43184 z m 1.38476,-1.65029 1.20146,-1.43184 1.761,1.47766 -1.20146,1.43184 z m 1.38475,-1.65028 1.20146,-1.43184 1.761,1.47766 -1.20146,1.43184 z m -3.55957,8.2621 1.20146,-1.43184 1.7625,1.47891 -1.20146,1.43185 z m 1.38475,-1.65028 1.20146,-1.43184 1.7625,1.47891 -1.20146,1.43184 z m 1.38476,-1.65029 1.20146,-1.43184 1.7625,1.47891 -1.20146,1.43184 z m 1.38476,-1.65029 1.20146,-1.43184 1.7625,1.47891 -1.20146,1.43184 z m 1.38475,-1.65028 1.20146,-1.43184 1.7625,1.47891 -1.20146,1.43184 z m -3.55807,8.26335 1.20146,-1.43184 1.761,1.47766 -1.20146,1.43184 z m 1.38475,-1.65028 1.20146,-1.43184 1.761,1.47766 -1.20146,1.43184 z m 1.38475,-1.65029 1.20146,-1.43184 1.76101,1.47766 -1.20146,1.43184 z m 1.38476,-1.65029 1.20146,-1.43184 1.76101,1.47766 -1.20146,1.43184 z m 1.38475,-1.65028 1.20146,-1.43184 1.76101,1.47766 -1.20146,1.43184 z m -3.55957,8.26209 1.20146,-1.43184 1.7625,1.47891 -1.20146,1.43185 z m 1.38475,-1.65028 1.20146,-1.43184 1.7625,1.47891 -1.20146,1.43184 z m 1.38476,-1.65029 1.20146,-1.43184 1.7625,1.47891 -1.20146,1.43184 z m 1.38476,-1.65029 1.20146,-1.43184 1.7625,1.47891 -1.20146,1.43185 z m 1.38475,-1.65028 1.20146,-1.43184 1.7625,1.47891 -1.20146,1.43184 z m -3.55808,8.26335 1.20146,-1.43184 1.7625,1.47891 -1.20146,1.43185 z m 1.38476,-1.65028 1.20146,-1.43184 1.7625,1.47891 -1.20146,1.43184 z m 1.38475,-1.65029 1.20146,-1.43184 1.7625,1.47891 -1.20146,1.43184 z m 1.38476,-1.65029 1.20146,-1.43184 1.7625,1.47891 -1.20146,1.43185 z m 1.38475,-1.65028 1.20146,-1.43184 1.7625,1.47891 -1.20146,1.43184 z m -3.55957,8.26209 1.20146,-1.43184 1.7625,1.47891 -1.20146,1.43185 z m 1.38475,-1.65028 1.20146,-1.43184 1.7625,1.47891 -1.20146,1.43184 z m 1.38476,-1.65029 1.20146,-1.43184 1.7625,1.47891 -1.20146,1.43185 z m 1.38475,-1.65029 1.20146,-1.43184 1.7625,1.47891 -1.20146,1.43185 z m 1.38475,-1.65028 1.20146,-1.43184 1.7625,1.47891 -1.20146,1.43184 z m -3.55807,8.26335 1.20146,-1.43184 1.7625,1.47891 -1.20146,1.43185 z m 1.38475,-1.65028 1.20146,-1.43184 1.7625,1.47891 -1.20146,1.43184 z m 1.38476,-1.65029 1.20146,-1.43184 1.7625,1.47891 -1.20146,1.43185 z m 1.38476,-1.65029 1.20146,-1.43184 1.7625,1.47891 -1.20146,1.43185 z m 1.38475,-1.65028 1.20146,-1.43184 1.7625,1.47891 -1.20146,1.43184 z m -3.55807,8.26335 1.20146,-1.43184 1.761,1.47766 -1.20146,1.43184 z m 1.38475,-1.65028 1.20146,-1.43184 1.76101,1.47766 -1.20146,1.43184 z m 1.38476,-1.65029 1.20146,-1.43184 1.761,1.47766 -1.20146,1.43184 z m 1.38475,-1.65029 1.20146,-1.43184 1.76101,1.47766 -1.20146,1.43184 z m 1.38475,-1.65028 1.20146,-1.43184 1.76101,1.47766 -1.20146,1.43184 z m -3.55957,8.26209 1.20146,-1.43184 1.7625,1.47891 -1.20146,1.43185 z m 1.38475,-1.65028 1.20146,-1.43184 1.7625,1.47891 -1.20146,1.43185 z m 1.38476,-1.65029 1.20146,-1.43184 1.7625,1.47891 -1.20146,1.43185 z m 1.38476,-1.65029 1.20146,-1.43184 1.7625,1.47891 -1.20146,1.43185 z m 1.38475,-1.65028 1.20146,-1.43184 1.7625,1.47891 -1.20146,1.43184 z m -3.55807,8.26335 1.20146,-1.43184 1.761,1.47766 -1.20146,1.43184 z m 1.38475,-1.65028 1.20146,-1.43184 1.761,1.47766 -1.20146,1.43184 z m 1.38475,-1.65029 1.20147,-1.43184 1.761,1.47766 -1.20146,1.43184 z m 1.38476,-1.65029 1.20146,-1.43184 1.76101,1.47766 -1.20146,1.43184 z m 1.38475,-1.65028 1.20146,-1.43184 1.76101,1.47766 -1.20146,1.43184 z m -3.55957,8.26209 1.20146,-1.43184 1.76251,1.47892 -1.20146,1.43184 z m 1.38475,-1.65028 1.20146,-1.43184 1.76251,1.47892 -1.20146,1.43184 z m 1.38476,-1.65029 1.20146,-1.43184 1.76251,1.47892 -1.20146,1.43184 z m 1.38476,-1.65029 1.20146,-1.43184 1.7625,1.47892 -1.20146,1.43184 z m 1.38475,-1.65028 1.20146,-1.43184 1.7625,1.47892 -1.20146,1.43184 z m -3.55807,8.26336 1.20146,-1.43185 1.761,1.47766 -1.20146,1.43184 z m 1.38475,-1.65029 1.20146,-1.43184 1.761,1.47766 -1.20146,1.43184 z m 1.38475,-1.65029 1.20146,-1.43184 1.76101,1.47766 -1.20146,1.43184 z m 1.38476,-1.65029 1.20146,-1.43184 1.76101,1.47766 -1.20146,1.43184 z m 1.38475,-1.65028 1.20146,-1.43184 1.76101,1.47766 -1.20146,1.43184 z m -3.55956,8.2621 1.20146,-1.43184 1.7625,1.47891 -1.20146,1.43184 z m 1.38475,-1.65028 1.20146,-1.43184 1.7625,1.47891 -1.20146,1.43184 z m 1.38475,-1.65029 1.20146,-1.43184 1.7625,1.47891 -1.20146,1.43184 z m 1.38476,-1.65029 1.20146,-1.43184 1.7625,1.47891 -1.20146,1.43184 z m 1.38475,-1.65028 1.20146,-1.43185 1.7625,1.47892 -1.20146,1.43184 z m -3.55808,8.26335 1.20146,-1.43185 1.76101,1.47766 -1.20146,1.43185 z m 1.38475,-1.65029 1.20146,-1.43184 1.76101,1.47766 -1.20146,1.43184 z m 1.38476,-1.65029 1.20146,-1.43184 1.76101,1.47766 -1.20146,1.43184 z m 1.38476,-1.65029 1.20146,-1.43184 1.76101,1.47766 -1.20146,1.43184 z m 1.38475,-1.65028 1.20146,-1.43184 1.76101,1.47766 -1.20146,1.43184 z m -3.55957,8.2621 1.20146,-1.43184 1.7625,1.47891 -1.20146,1.43185 z m 1.38476,-1.65028 1.20146,-1.43184 1.7625,1.47891 -1.20146,1.43184 z m 1.38475,-1.65029 1.20146,-1.43184 1.7625,1.47891 -1.20146,1.43184 z m 1.38476,-1.65029 1.20146,-1.43184 1.7625,1.47891 -1.20146,1.43184 z m 1.38475,-1.65028 1.20146,-1.43184 1.7625,1.47891 -1.20146,1.43184 z m -3.55807,8.26335 1.20146,-1.43184 1.761,1.47765 -1.20146,1.43185 z m 1.38475,-1.65028 1.20146,-1.43184 1.761,1.47765 -1.20146,1.43184 z m 1.38476,-1.65029 1.20146,-1.43184 1.761,1.47765 -1.20146,1.43184 z m 1.38476,-1.65029 1.20146,-1.43184 1.76099,1.47765 -1.20146,1.43184 z m 1.38475,-1.65028 1.20146,-1.43184 1.76099,1.47765 -1.20146,1.43184 z m -3.55958,8.26209 1.20146,-1.43184 1.7625,1.47891 -1.20146,1.43185 z m 1.38475,-1.65028 1.20146,-1.43184 1.7625,1.47891 -1.20146,1.43184 z m 1.38476,-1.65029 1.20146,-1.43184 1.7625,1.47891 -1.20146,1.43184 z m 1.38476,-1.65029 1.20146,-1.43184 1.7625,1.47891 -1.20146,1.43184 z m 1.38475,-1.65028 1.20146,-1.43184 1.7625,1.47891 -1.20146,1.43184 z m -3.55807,8.26335 1.20146,-1.43184 1.7625,1.47891 -1.20146,1.43185 z m 1.38475,-1.65028 1.20146,-1.43184 1.7625,1.47891 -1.20146,1.43184 z m 1.38476,-1.65029 1.20146,-1.43184 1.7625,1.47891 -1.20146,1.43184 z m 1.38475,-1.65029 1.20146,-1.43184 1.7625,1.47891 -1.20146,1.43185 z m 1.38475,-1.65028 1.20146,-1.43184 1.7625,1.47891 -1.20146,1.43184 z m -3.55957,8.26209 1.20146,-1.43184 1.7625,1.47891 -1.20146,1.43185 z m 1.38475,-1.65028 1.20146,-1.43184 1.7625,1.47891 -1.20146,1.43184 z m 1.38476,-1.65029 1.20146,-1.43184 1.7625,1.47891 -1.20146,1.43184 z m 1.38476,-1.65029 1.20146,-1.43184 1.7625,1.47891 -1.20146,1.43185 z m 1.38475,-1.65028 1.20146,-1.43184 1.7625,1.47891 -1.20146,1.43184 z m -3.55807,8.26335 1.20146,-1.43184 1.7625,1.47891 -1.20146,1.43185 z m 1.38475,-1.65028 1.20146,-1.43184 1.7625,1.47891 -1.20146,1.43184 z m 1.38476,-1.65029 1.20146,-1.43184 1.76249,1.47891 -1.20146,1.43185 z m 1.38475,-1.65029 1.20146,-1.43184 1.7625,1.47891 -1.20146,1.43185 z m 1.38475,-1.65028 1.20146,-1.43184 1.7625,1.47891 -1.20146,1.43184 z m -3.55807,8.26335 1.20146,-1.43184 1.761,1.47765 -1.20146,1.43185 z m 1.38475,-1.65028 1.20146,-1.43184 1.761,1.47765 -1.20146,1.43184 z m 1.38476,-1.65029 1.20146,-1.43184 1.761,1.47765 -1.20146,1.43185 z m 1.38476,-1.65029 1.20146,-1.43184 1.761,1.47765 -1.20146,1.43185 z m 1.38475,-1.65028 1.20146,-1.43184 1.761,1.47765 -1.20146,1.43184 z m -3.55957,8.26209 1.20146,-1.43184 1.7625,1.47891 -1.20146,1.43185 z m 1.38475,-1.65028 1.20146,-1.43184 1.7625,1.47891 -1.20146,1.43185 z m 1.38475,-1.65029 1.20146,-1.43184 1.7625,1.47891 -1.20146,1.43185 z m 1.38476,-1.65029 1.20146,-1.43184 1.7625,1.47891 -1.20146,1.43185 z m 1.38475,-1.65028 1.20146,-1.43184 1.7625,1.47891 -1.20146,1.43184 z m -3.55807,8.26335 1.20146,-1.43184 1.76101,1.47766 -1.20146,1.43184 z m 1.38475,-1.65028 1.20146,-1.43184 1.76101,1.47766 -1.20146,1.43184 z m 1.38476,-1.65029 1.20146,-1.43184 1.761,1.47766 -1.20146,1.43184 z m 1.38476,-1.65029 1.20146,-1.43184 1.761,1.47766 -1.20146,1.43184 z m 1.38475,-1.65028 1.20146,-1.43184 1.761,1.47766 -1.20146,1.43184 z m -3.55958,8.26209 1.20146,-1.43184 1.7625,1.47891 -1.20146,1.43185 z m 1.38475,-1.65028 1.20146,-1.43184 1.7625,1.47891 -1.20146,1.43185 z m 1.38476,-1.65029 1.20146,-1.43184 1.7625,1.47891 -1.20146,1.43185 z m 1.38476,-1.65029 1.20146,-1.43184 1.7625,1.47891 -1.20146,1.43185 z m 1.38475,-1.65028 1.20146,-1.43184 1.7625,1.47891 -1.20146,1.43184 z m -35.69218,-39.95657 c 0.0603,0.0507 0.15027,0.0428 0.20087,-0.0176 l 39.87919,-47.526169 c 0.0507,-0.06031 0.0428,-0.150276 -0.0176,-0.200871 l -8.25143,-6.923774 c -0.0603,-0.05066 -0.15028,-0.04279 -0.20088,0.01757 L 133.2154,105.5931 c -0.0507,0.0603 -0.0428,0.15028 0.0176,0.20087 z m 0.0741,-0.31009 -1.43185,-1.20146 1.47766,-1.76101 1.43185,1.20146 z m -1.65029,-1.38475 -1.43184,-1.20146 1.47766,-1.76101 1.43184,1.20146 z m -1.65029,-1.38476 -1.43184,-1.20146 1.47766,-1.761 1.43184,1.20146 z m -1.65029,-1.38476 -1.43184,-1.20146 1.47766,-1.761 1.43184,1.20146 z m -1.65028,-1.38475 -1.43184,-1.20146 1.47766,-1.761 1.43184,1.20146 z m 8.2621,3.55957 -1.43184,-1.20146 1.47891,-1.7625 1.43185,1.20146 z m -1.65028,-1.38475 -1.43184,-1.20146 1.47891,-1.7625 1.43184,1.20146 z m -1.65029,-1.38476 -1.43184,-1.20146 1.47891,-1.7625 1.43184,1.20146 z m -1.65029,-1.38476 -1.43184,-1.20146 1.47891,-1.7625 1.43184,1.20146 z m -1.65028,-1.38475 -1.43184,-1.20146 1.47891,-1.7625 1.43184,1.20146 z m 8.26335,3.55807 -1.43184,-1.20146 1.47766,-1.761 1.43184,1.20146 z m -1.65028,-1.38475 -1.43184,-1.20146 1.47766,-1.761 1.43184,1.20146 z m -1.65029,-1.38475 -1.43184,-1.20146 1.47766,-1.76101 1.43184,1.20146 z m -1.65029,-1.38476 -1.43184,-1.20146 1.47766,-1.76101 1.43184,1.20146 z m -1.65028,-1.38475 -1.43184,-1.20146 1.47766,-1.761009 1.43184,1.201459 z m 8.26209,3.55957 -1.43184,-1.20146 1.47891,-1.7625 1.43185,1.20146 z m -1.65028,-1.38475 -1.43184,-1.20146 1.47891,-1.7625 1.43184,1.20146 z m -1.65029,-1.38476 -1.43184,-1.20146 1.47891,-1.7625 1.43184,1.20146 z m -1.65029,-1.38476 -1.43184,-1.20146 1.47891,-1.762495 1.43185,1.201455 z m -1.65028,-1.38475 -1.43184,-1.201456 1.47891,-1.7625 1.43184,1.20146 z m 8.26335,3.55808 -1.43184,-1.20146 1.47891,-1.7625 1.43185,1.20146 z m -1.65028,-1.38476 -1.43184,-1.20146 1.47891,-1.7625 1.43184,1.20146 z m -1.65029,-1.38475 -1.43184,-1.20146 1.47891,-1.762503 1.43184,1.20146 z m -1.65029,-1.38476 -1.43184,-1.20146 1.47891,-1.7625 1.43185,1.20146 z m -1.65028,-1.384751 -1.43184,-1.20146 1.47891,-1.7625 1.43184,1.20146 z m 8.26209,3.559571 -1.43184,-1.20146 1.47891,-1.762498 1.43185,1.201458 z m -1.65028,-1.38475 -1.43184,-1.201459 1.47891,-1.7625 1.43184,1.20146 z m -1.65029,-1.384757 -1.43184,-1.20146 1.47891,-1.762499 1.43185,1.20146 z m -1.65029,-1.384757 -1.43184,-1.20146 1.47891,-1.7625 1.43185,1.20146 z m -1.65028,-1.384751 -1.43184,-1.20146 1.47891,-1.7625 1.43184,1.20146 z m 8.26335,3.558075 -1.43184,-1.201463 1.47891,-1.7625 1.43185,1.20146 z m -1.65028,-1.384754 -1.43184,-1.20146 1.47891,-1.7625 1.43184,1.20146 z m -1.65029,-1.384758 -1.43184,-1.20146 1.47891,-1.762499 1.43185,1.20146 z m -1.65029,-1.384757 -1.43184,-1.20146 1.47891,-1.7625 1.43185,1.20146 z m -1.65028,-1.384751 -1.43184,-1.20146 1.47891,-1.7625 1.43184,1.20146 z m 8.26335,3.558072 -1.43184,-1.20146 1.47766,-1.761006 1.43184,1.20146 z m -1.65028,-1.384751 -1.43184,-1.20146 1.47766,-1.761006 1.43184,1.20146 z m -1.65029,-1.384757 -1.43184,-1.201461 1.47766,-1.761005 1.43184,1.20146 z m -1.65029,-1.384758 -1.43184,-1.20146 1.47766,-1.761006 1.43184,1.20146 z m -1.65028,-1.384751 -1.43184,-1.20146 1.47766,-1.761006 1.43184,1.20146 z m 8.26209,3.559573 -1.43184,-1.20146 1.47891,-1.7625 1.43185,1.201461 z m -1.65028,-1.384751 -1.43184,-1.20146 1.47891,-1.762499 1.43185,1.20146 z m -1.65029,-1.384757 -1.43184,-1.20146 1.47891,-1.7625 1.43185,1.20146 z m -1.65029,-1.384757 -1.43184,-1.20146 1.47891,-1.7625 1.43185,1.20146 z m -1.65028,-1.384751 -1.43184,-1.20146 1.47891,-1.7625 1.43184,1.20146 z m 8.26335,3.558071 -1.43184,-1.20146 1.47766,-1.761006 1.43184,1.20146 z m -1.65028,-1.384751 -1.43184,-1.20146 1.47766,-1.761006 1.43184,1.20146 z m -1.65029,-1.384757 -1.43184,-1.20146 1.47766,-1.761006 1.43184,1.20146 z m -1.65029,-1.384757 -1.43184,-1.20146 1.47766,-1.761006 1.43184,1.20146 z m -1.65028,-1.384751 -1.43184,-1.20146 1.47766,-1.761006 1.43184,1.20146 z m 8.26209,3.559573 -1.43184,-1.20146 1.47892,-1.762508 1.43184,1.20146 z m -1.65028,-1.384751 -1.43184,-1.20146 1.47892,-1.762508 1.43184,1.20146 z m -1.65029,-1.384757 -1.43184,-1.201461 1.47892,-1.762507 1.43184,1.20146 z m -1.65029,-1.384758 -1.43184,-1.20146 1.47892,-1.762507 1.43184,1.20146 z m -1.65028,-1.384751 -1.43184,-1.20146 1.47892,-1.762507 1.43184,1.20146 z m 8.26336,3.558072 -1.43185,-1.20146 1.47766,-1.761006 1.43184,1.20146 z m -1.65029,-1.384751 -1.43184,-1.20146 1.47766,-1.761006 1.43184,1.20146 z m -1.65029,-1.384757 -1.43184,-1.20146 1.47766,-1.761006 1.43184,1.20146 z m -1.65029,-1.384758 -1.43184,-1.20146 1.47766,-1.761006 1.43184,1.20146 z m -1.65028,-1.384751 -1.43184,-1.20146 1.47766,-1.761006 1.43184,1.20146 z m 8.2621,3.559566 -1.43184,-1.20146 1.47891,-1.7625 1.43184,1.20146 z m -1.65028,-1.384751 -1.43184,-1.20146 1.47891,-1.7625 1.43184,1.20146 z m -1.65029,-1.384758 -1.43184,-1.20146 1.47891,-1.762499 1.43184,1.20146 z m -1.65029,-1.384757 -1.43184,-1.20146 1.47891,-1.7625 1.43184,1.20146 z m -1.65028,-1.384751 -1.43185,-1.20146 1.47892,-1.7625 1.43184,1.20146 z m 8.26335,3.558079 -1.43185,-1.20146 1.47766,-1.761006 1.43185,1.20146 z m -1.65029,-1.384751 -1.43184,-1.20146 1.47766,-1.761006 1.43184,1.20146 z m -1.65029,-1.384757 -1.43184,-1.20146 1.47766,-1.761006 1.43184,1.20146 z m -1.65029,-1.384757 -1.43184,-1.20146 1.47766,-1.761006 1.43184,1.20146 z m -1.65028,-1.384751 -1.43184,-1.20146 1.47766,-1.761006 1.43184,1.20146 z m 8.2621,3.559565 -1.43184,-1.20146 1.47891,-1.7625 1.43185,1.20146 z m -1.65028,-1.384751 -1.43184,-1.20146 1.47891,-1.7625 1.43184,1.20146 z m -1.65029,-1.384757 -1.43184,-1.20146 1.47891,-1.7625 1.43184,1.20146 z m -1.65029,-1.384757 -1.43184,-1.201461 1.47891,-1.762499 1.43184,1.20146 z m -1.65028,-1.384751 -1.43184,-1.20146 1.47891,-1.7625 1.43184,1.20146 z m 8.26335,3.558071 -1.43184,-1.20146 1.47765,-1.760998 1.43185,1.20146 z m -1.65028,-1.384751 -1.43184,-1.20146 1.47765,-1.760998 1.43184,1.20146 z m -1.65029,-1.384757 -1.43184,-1.20146 1.47765,-1.760998 1.43184,1.20146 z m -1.65029,-1.384757 -1.43184,-1.20146 1.47765,-1.760999 1.43184,1.20146 z m -1.65028,-1.384751 -1.43184,-1.20146 1.47765,-1.760999 1.43184,1.20146 z m 8.26209,3.559573 -1.43184,-1.20146 1.47891,-1.7625 1.43185,1.20146 z m -1.65028,-1.384751 -1.43184,-1.20146 1.47891,-1.7625 1.43184,1.20146 z m -1.65029,-1.384758 -1.43184,-1.20146 1.47891,-1.762499 1.43184,1.20146 z m -1.65029,-1.384757 -1.43184,-1.20146 1.47891,-1.7625 1.43184,1.20146 z m -1.65028,-1.384751 -1.43184,-1.20146 1.47891,-1.7625 1.43184,1.20146 z m 8.26335,3.558072 -1.43184,-1.20146 1.47891,-1.7625 1.43185,1.20146 z m -1.65028,-1.384751 -1.43184,-1.20146 1.47891,-1.7625 1.43184,1.20146 z m -1.65029,-1.384758 -1.43184,-1.20146 1.47891,-1.762499 1.43184,1.20146 z m -1.65029,-1.384757 -1.43184,-1.20146 1.47891,-1.7625 1.43185,1.20146 z m -1.65028,-1.384751 -1.43184,-1.20146 1.47891,-1.7625 1.43184,1.20146 z m 8.26209,3.559573 -1.43184,-1.20146 1.47891,-1.7625 1.43185,1.20146 z m -1.65028,-1.384751 -1.43184,-1.20146 1.47891,-1.7625 1.43184,1.201461 z m -1.65029,-1.384757 -1.43184,-1.20146 1.47891,-1.7625 1.43184,1.20146 z m -1.65029,-1.384757 -1.43184,-1.20146 1.47891,-1.7625 1.43185,1.20146 z m -1.65028,-1.384751 -1.43184,-1.20146 1.47891,-1.7625 1.43184,1.20146 z m 8.26335,3.558071 -1.43184,-1.20146 1.47891,-1.7625 1.43185,1.20146 z m -1.65028,-1.384751 -1.43184,-1.20146 1.47891,-1.762499 1.43184,1.20146 z m -1.65029,-1.384757 -1.43184,-1.20146 1.47891,-1.7625 1.43185,1.20146 z m -1.65029,-1.384757 -1.43184,-1.20146 1.47891,-1.7625 1.43185,1.20146 z m -1.65028,-1.384751 -1.43184,-1.20146 1.47891,-1.7625 1.43184,1.20146 z m 8.26335,3.558071 -1.43184,-1.20146 1.47765,-1.760998 1.43185,1.20146 z m -1.65028,-1.384751 -1.43184,-1.20146 1.47765,-1.760998 1.43184,1.20146 z m -1.65029,-1.384757 -1.43184,-1.20146 1.47765,-1.760998 1.43185,1.20146 z m -1.65029,-1.384757 -1.43184,-1.20146 1.47765,-1.760999 1.43185,1.20146 z m -1.65028,-1.384751 -1.43184,-1.20146 1.47765,-1.760999 1.43184,1.20146 z m 8.26209,3.559573 -1.43184,-1.20146 1.47891,-1.7625 1.43185,1.20146 z m -1.65028,-1.384751 -1.43184,-1.20146 1.47891,-1.7625 1.43185,1.20146 z m -1.65029,-1.384758 -1.43184,-1.20146 1.47891,-1.762499 1.43185,1.20146 z m -1.65029,-1.384757 -1.43184,-1.20146 1.47891,-1.7625 1.43185,1.20146 z m -1.65028,-1.384751 -1.43184,-1.20146 1.47891,-1.7625 1.43184,1.20146 z m 8.26335,3.558072 -1.43184,-1.20146 1.47766,-1.761006 1.43184,1.20146 z m -1.65028,-1.384751 -1.43184,-1.20146 1.47766,-1.761006 1.43184,1.20146 z m -1.65029,-1.384758 -1.43184,-1.20146 1.47766,-1.761006 1.43184,1.201461 z m -1.65029,-1.384757 -1.43184,-1.20146 1.47766,-1.761006 1.43184,1.20146 z m -1.65028,-1.384751 -1.43184,-1.20146 1.47766,-1.761006 1.43184,1.20146 z m 8.26209,3.559573 -1.43184,-1.20146 1.47891,-1.7625 1.43185,1.20146 z m -1.65028,-1.384751 -1.43184,-1.20146 1.47891,-1.762499 1.43185,1.20146 z m -1.65029,-1.384757 -1.43184,-1.20146 1.47891,-1.7625 1.43185,1.20146 z m -1.65029,-1.384757 -1.43184,-1.20146 1.47891,-1.7625 1.43185,1.20146 z m -1.65028,-1.384751 -1.43184,-1.20146 1.47891,-1.7625 1.43184,1.20146 z m -39.95657,35.692182 c 0.0507,-0.06031 0.0428,-0.150275 -0.0176,-0.200871 L 85.674001,56.935529 c -0.06031,-0.05066 -0.150276,-0.04279 -0.200871,0.01757 l -6.923774,8.251432 c -0.05066,0.06031 -0.04279,0.150276 0.01757,0.200871 L 126.0931,105.2846 c 0.0603,0.0507 0.15028,0.0428 0.20087,-0.0176 z m -0.31009,-0.07407 -1.20146,1.431844 -1.76101,-1.477659 1.20146,-1.431844 z m -1.38475,1.650282 -1.20146,1.431844 -1.76101,-1.477659 1.20146,-1.431844 z m -1.38476,1.650294 -1.20146,1.43184 -1.761,-1.47766 1.20146,-1.431844 z m -1.38476,1.65029 -1.20146,1.43184 -1.761,-1.47766 1.20146,-1.43184 z m -1.38475,1.65028 -1.20146,1.43184 -1.761,-1.47766 1.20146,-1.43184 z m 3.55957,-8.262103 -1.20146,1.431845 -1.7625,-1.478913 1.20146,-1.431845 z m -1.38475,1.650282 -1.20146,1.431845 -1.7625,-1.478913 1.20146,-1.431845 z m -1.38476,1.65029 -1.20146,1.431841 -1.7625,-1.47891 1.20146,-1.431844 z m -1.38476,1.650291 -1.20146,1.43184 -1.7625,-1.47891 1.20146,-1.431845 z m -1.38475,1.65028 -1.20146,1.43184 -1.7625,-1.47891 1.20146,-1.43184 z m 3.55807,-8.263353 -1.20146,1.431844 -1.761,-1.477659 1.20146,-1.431844 z m -1.38475,1.650282 -1.20146,1.431844 -1.761,-1.477659 1.20146,-1.431844 z m -1.38475,1.65029 -1.20146,1.431844 -1.76101,-1.47766 1.20146,-1.431844 z m -1.38476,1.650289 -1.20146,1.431842 -1.76101,-1.477657 1.20146,-1.431844 z m -1.38475,1.650282 -1.20146,1.43184 -1.76101,-1.47766 1.20146,-1.431839 z m 3.55957,-8.262093 -1.20146,1.431844 -1.7625,-1.478913 1.20146,-1.431844 z m -1.38475,1.650282 -1.20146,1.431844 -1.7625,-1.478913 1.20146,-1.431844 z m -1.38476,1.650289 -1.20146,1.431845 -1.7625,-1.478913 1.20146,-1.431845 z m -1.38476,1.65029 -1.20146,1.431844 -1.7625,-1.478913 1.20146,-1.431844 z m -1.38475,1.650282 -1.20146,1.431844 -1.7625,-1.478913 1.20146,-1.431844 z m 3.55808,-8.263353 -1.20146,1.431844 -1.7625,-1.478913 1.20146,-1.431844 z m -1.38476,1.650282 -1.20146,1.431844 -1.7625,-1.478913 1.20146,-1.431844 z m -1.38475,1.650289 -1.20146,1.431844 -1.7625,-1.478913 1.20146,-1.431844 z m -1.38476,1.65029 -1.20146,1.431844 -1.7625,-1.478913 1.20146,-1.431844 z m -1.38475,1.650281 -1.20146,1.431845 -1.7625,-1.478913 1.20146,-1.431844 z m 3.55957,-8.262093 -1.20146,1.431845 -1.7625,-1.478913 1.20146,-1.431845 z m -1.38475,1.650282 -1.20146,1.431844 -1.7625,-1.478912 1.20146,-1.431845 z m -1.38476,1.65029 -1.20146,1.431844 -1.7625,-1.478913 1.20146,-1.431844 z m -1.38475,1.650289 -1.20146,1.431845 -1.7625,-1.478913 1.20146,-1.431845 z m -1.38475,1.650282 -1.20146,1.431844 -1.7625,-1.478912 1.20146,-1.431845 z m 3.55807,-8.263353 -1.20146,1.431844 -1.7625,-1.478912 1.20146,-1.431845 z m -1.38475,1.650282 -1.20146,1.431844 -1.7625,-1.478913 1.20146,-1.431844 z m -1.38476,1.65029 -1.20146,1.431844 -1.7625,-1.478913 1.20146,-1.431844 z m -1.38476,1.650289 -1.20146,1.431844 -1.7625,-1.478912 1.20146,-1.431845 z m -1.38475,1.650282 -1.20146,1.431844 -1.7625,-1.478913 1.20146,-1.431844 z m 3.55807,-8.263353 -1.20146,1.431844 -1.761,-1.477659 1.20146,-1.431845 z m -1.38475,1.650282 -1.20146,1.431844 -1.76101,-1.477659 1.20146,-1.431845 z m -1.38476,1.650289 -1.20146,1.431845 -1.761,-1.47766 1.20146,-1.431844 z m -1.38475,1.65029 -1.20146,1.431844 -1.76101,-1.477659 1.20146,-1.431845 z m -1.38475,1.650282 -1.20146,1.431844 -1.76101,-1.477659 1.20146,-1.431845 z m 3.55957,-8.262093 -1.20146,1.431844 -1.7625,-1.478913 1.20146,-1.431844 z m -1.38475,1.650281 -1.20146,1.431845 -1.7625,-1.478913 1.20146,-1.431844 z m -1.38476,1.65029 -1.20146,1.431844 -1.7625,-1.478913 1.20146,-1.431844 z m -1.38476,1.65029 -1.20146,1.431844 -1.7625,-1.478913 1.20146,-1.431844 z m -1.38475,1.650281 -1.20146,1.431845 -1.7625,-1.478913 1.20146,-1.431844 z m 3.55807,-8.263353 -1.20146,1.431845 -1.761,-1.47766 1.20146,-1.431844 z m -1.38475,1.650282 -1.20146,1.431845 -1.761,-1.47766 1.20146,-1.431844 z m -1.38475,1.65029 -1.20147,1.431844 -1.761,-1.477659 1.20146,-1.431845 z m -1.38476,1.650289 -1.20146,1.431845 -1.76101,-1.47766 1.20146,-1.431844 z m -1.38475,1.650282 -1.20146,1.431845 -1.76101,-1.47766 1.20146,-1.431844 z m 3.55957,-8.262093 -1.20146,1.431844 -1.76251,-1.478919 1.20146,-1.431844 z m -1.38475,1.650282 -1.20146,1.431844 -1.76251,-1.478919 1.20146,-1.431844 z m -1.38476,1.650289 -1.20146,1.431845 -1.76251,-1.478919 1.20146,-1.431845 z m -1.38476,1.65029 -1.20146,1.431844 -1.7625,-1.478919 1.20146,-1.431844 z m -1.38475,1.650282 -1.20146,1.431844 -1.7625,-1.478919 1.20146,-1.431844 z m 3.55807,-8.263353 -1.20146,1.431844 -1.761,-1.477659 1.20146,-1.431845 z m -1.38475,1.650282 -1.20146,1.431844 -1.761,-1.477659 1.20146,-1.431845 z m -1.38475,1.650289 -1.20146,1.431845 -1.76101,-1.47766 1.20146,-1.431844 z m -1.38476,1.65029 -1.20146,1.431844 -1.76101,-1.477659 1.20146,-1.431845 z m -1.38475,1.650282 -1.20146,1.431844 -1.76101,-1.477659 1.20146,-1.431845 z m 3.55956,-8.2621 -1.20146,1.431844 -1.7625,-1.478912 1.20146,-1.431845 z m -1.38475,1.650282 -1.20146,1.431844 -1.7625,-1.478913 1.20146,-1.431844 z m -1.38475,1.65029 -1.20146,1.431844 -1.7625,-1.478913 1.20146,-1.431844 z m -1.38476,1.650289 -1.20146,1.431844 -1.7625,-1.478912 1.20146,-1.431845 z m -1.38475,1.650282 -1.20146,1.431844 -1.7625,-1.478913 1.20146,-1.431844 z m 3.55808,-8.263347 -1.20146,1.431845 -1.76101,-1.47766 1.20146,-1.431844 z m -1.38475,1.650282 -1.20146,1.431845 -1.76101,-1.47766 1.20146,-1.431844 z m -1.38476,1.65029 -1.20146,1.431844 -1.76101,-1.477659 1.20146,-1.431845 z m -1.38476,1.650289 -1.20146,1.431845 -1.76101,-1.47766 1.20146,-1.431844 z m -1.38475,1.650282 -1.20146,1.431845 -1.761006,-1.47766 1.20146,-1.431844 z m 3.55957,-8.262099 -1.20146,1.431844 -1.7625,-1.478913 1.20146,-1.431844 z m -1.38476,1.650281 -1.20146,1.431845 -1.7625,-1.478913 1.20146,-1.431844 z m -1.38475,1.65029 -1.20146,1.431844 -1.762503,-1.478913 1.201463,-1.431844 z m -1.38476,1.65029 -1.201461,1.431844 -1.762499,-1.478913 1.20146,-1.431844 z m -1.384751,1.650281 -1.20146,1.431845 -1.7625,-1.478913 1.20146,-1.431844 z m 3.558071,-8.263353 -1.20146,1.431845 -1.761,-1.477653 1.20146,-1.431845 z m -1.38475,1.650282 -1.20146,1.431845 -1.760999,-1.477653 1.201459,-1.431845 z m -1.38476,1.65029 -1.201458,1.431844 -1.760998,-1.477653 1.20146,-1.431844 z m -1.384755,1.650289 -1.20146,1.431845 -1.760999,-1.477653 1.20146,-1.431845 z m -1.384751,1.650282 -1.20146,1.431845 -1.760999,-1.477653 1.20146,-1.431845 z m 3.559576,-8.262093 -1.20146,1.431844 -1.762503,-1.478912 1.20146,-1.431845 z m -1.384754,1.650282 -1.20146,1.431844 -1.7625,-1.478913 1.20146,-1.431844 z m -1.384758,1.65029 -1.20146,1.431844 -1.762499,-1.478913 1.20146,-1.431844 z m -1.384757,1.650289 -1.20146,1.431844 -1.7625,-1.478913 1.20146,-1.431844 z m -1.384751,1.650282 -1.20146,1.431844 -1.7625,-1.478913 1.20146,-1.431844 z m 3.558072,-8.263353 -1.20146,1.431844 -1.7625,-1.478913 1.20146,-1.431844 z m -1.384751,1.650282 -1.20146,1.431844 -1.7625,-1.478913 1.20146,-1.431844 z m -1.384758,1.650289 -1.20146,1.431845 -1.762499,-1.478913 1.20146,-1.431845 z m -1.384757,1.65029 -1.20146,1.431844 -1.7625,-1.478913 1.20146,-1.431844 z m -1.384751,1.650282 -1.20146,1.431844 -1.7625,-1.478913 1.20146,-1.431844 z m 3.559573,-8.262093 -1.20146,1.431844 -1.7625,-1.478913 1.20146,-1.431844 z m -1.384751,1.650281 -1.20146,1.431845 -1.7625,-1.478913 1.201461,-1.431844 z m -1.384757,1.65029 -1.20146,1.431844 -1.7625,-1.478913 1.20146,-1.431844 z m -1.384757,1.65029 -1.20146,1.431844 -1.7625,-1.478913 1.20146,-1.431844 z m -1.384751,1.650281 -1.20146,1.431845 -1.7625,-1.478913 1.20146,-1.431844 z m 3.558071,-8.263353 -1.20146,1.431845 -1.7625,-1.478913 1.20146,-1.431845 z m -1.384751,1.650282 -1.20146,1.431845 -1.762499,-1.478913 1.20146,-1.431845 z m -1.384757,1.65029 -1.20146,1.431844 -1.7625,-1.478913 1.20146,-1.431844 z m -1.384757,1.650289 -1.20146,1.431845 -1.7625,-1.478913 1.20146,-1.431845 z m -1.384751,1.650282 -1.20146,1.431845 -1.7625,-1.478913 1.20146,-1.431845 z m 3.558071,-8.263353 -1.20146,1.431844 -1.760998,-1.477653 1.20146,-1.431844 z m -1.384751,1.650282 -1.20146,1.431844 -1.760998,-1.477653 1.20146,-1.431844 z m -1.384757,1.65029 -1.20146,1.431844 -1.760998,-1.477653 1.20146,-1.431844 z m -1.384757,1.650289 -1.20146,1.431844 -1.760999,-1.477653 1.20146,-1.431844 z m -1.384751,1.650282 -1.20146,1.431844 -1.760999,-1.477653 1.20146,-1.431844 z m 3.559573,-8.262093 -1.20146,1.431844 -1.7625,-1.478913 1.20146,-1.431844 z m -1.384751,1.650282 -1.20146,1.431844 -1.7625,-1.478913 1.20146,-1.431844 z m -1.384758,1.650289 -1.20146,1.431845 -1.762499,-1.478913 1.20146,-1.431845 z m -1.384757,1.65029 -1.20146,1.431844 -1.7625,-1.478913 1.20146,-1.431844 z m -1.384751,1.650282 -1.20146,1.431844 -1.7625,-1.478913 1.20146,-1.431844 z m 3.558072,-8.263353 -1.20146,1.431844 -1.761006,-1.477659 1.20146,-1.431845 z m -1.384751,1.650282 -1.20146,1.431844 -1.761006,-1.47766 1.20146,-1.431844 z m -1.384758,1.650289 -1.20146,1.431844 -1.761006,-1.477659 1.201461,-1.431844 z m -1.384757,1.65029 -1.20146,1.431844 -1.761006,-1.477659 1.20146,-1.431845 z m -1.384751,1.650282 -1.20146,1.431844 -1.761006,-1.47766 1.20146,-1.431844 z m 3.559573,-8.262094 -1.20146,1.431845 -1.7625,-1.478913 1.20146,-1.431845 z m -1.384751,1.650282 -1.20146,1.431845 -1.762499,-1.478913 1.20146,-1.431845 z m -1.384757,1.65029 -1.20146,1.431844 -1.7625,-1.478913 1.20146,-1.431844 z m -1.384757,1.650289 -1.20146,1.431845 -1.7625,-1.478913 1.20146,-1.431845 z m -1.384751,1.650282 -1.20146,1.431845 -1.7625,-1.478913 1.20146,-1.431845 z m 35.69218,39.956572 c -0.0603,-0.0507 -0.15027,-0.0428 -0.20087,0.0176 L 77.435529,152.826 c -0.05066,0.0603 -0.04279,0.15027 0.01757,0.20087 l 8.251432,6.92377 c 0.06031,0.0507 0.150276,0.0428 0.200871,-0.0176 L 125.7846,112.4069 c 0.0507,-0.0603 0.0428,-0.15028 -0.0176,-0.20087 z m -0.0741,0.31009 1.43185,1.20146 -1.47766,1.76101 -1.43185,-1.20146 z m 1.65029,1.38475 1.43184,1.20146 -1.47766,1.76101 -1.43184,-1.20146 z m 1.65029,1.38476 1.43184,1.20146 -1.47766,1.761 -1.43184,-1.20146 z m 1.65029,1.38476 1.43184,1.20146 -1.47766,1.761 -1.43184,-1.20146 z m 1.65028,1.38475 1.43184,1.20146 -1.47766,1.761 -1.43184,-1.20146 z m -8.2621,-3.55957 1.43184,1.20146 -1.47891,1.7625 -1.43185,-1.20146 z m 1.65028,1.38475 1.43184,1.20146 -1.47891,1.7625 -1.43184,-1.20146 z m 1.65029,1.38476 1.43184,1.20146 -1.47891,1.7625 -1.43184,-1.20146 z m 1.65029,1.38476 1.43184,1.20146 -1.47891,1.7625 -1.43184,-1.20146 z m 1.65028,1.38475 1.43184,1.20146 -1.47891,1.7625 -1.43184,-1.20146 z m -8.26335,-3.55807 1.43184,1.20146 -1.47766,1.761 -1.43184,-1.20146 z m 1.65028,1.38475 1.43184,1.20146 -1.47766,1.761 -1.43184,-1.20146 z m 1.65029,1.38475 1.43184,1.20146 -1.47766,1.76101 -1.43184,-1.20146 z m 1.65029,1.38476 1.43184,1.20146 -1.47766,1.76101 -1.43184,-1.20146 z m 1.65028,1.38475 1.43184,1.20146 -1.47766,1.76101 -1.43184,-1.20146 z m -8.26209,-3.55957 1.43184,1.20146 -1.47891,1.7625 -1.43185,-1.20146 z m 1.65028,1.38475 1.43184,1.20146 -1.47891,1.7625 -1.43184,-1.20146 z m 1.65029,1.38476 1.43184,1.20146 -1.47891,1.7625 -1.43184,-1.20146 z m 1.65029,1.38476 1.43184,1.20146 -1.47891,1.7625 -1.43185,-1.20146 z m 1.65028,1.38475 1.43184,1.20146 -1.47891,1.7625 -1.43184,-1.20146 z m -8.26335,-3.55808 1.43184,1.20146 -1.47891,1.7625 -1.43185,-1.20146 z m 1.65028,1.38476 1.43184,1.20146 -1.47891,1.7625 -1.43184,-1.20146 z m 1.65029,1.38475 1.43184,1.20146 -1.47891,1.7625 -1.43184,-1.20146 z m 1.65029,1.38476 1.43184,1.20146 -1.47891,1.7625 -1.43185,-1.20146 z m 1.65028,1.38475 1.43184,1.20146 -1.47891,1.7625 -1.43184,-1.20146 z m -8.26209,-3.55957 1.43184,1.20146 -1.47891,1.7625 -1.43185,-1.20146 z m 1.65028,1.38475 1.43184,1.20146 -1.47891,1.7625 -1.43184,-1.20146 z m 1.65029,1.38476 1.43184,1.20146 -1.47891,1.7625 -1.43185,-1.20146 z m 1.65029,1.38475 1.43184,1.20146 -1.47891,1.7625 -1.43185,-1.20146 z m 1.65028,1.38475 1.43184,1.20146 -1.47891,1.7625 -1.43184,-1.20146 z m -8.26335,-3.55807 1.43184,1.20146 -1.47891,1.7625 -1.43185,-1.20146 z m 1.65028,1.38475 1.43184,1.20146 -1.47891,1.7625 -1.43184,-1.20146 z m 1.65029,1.38476 1.43184,1.20146 -1.47891,1.7625 -1.43185,-1.20146 z m 1.65029,1.38476 1.43184,1.20146 -1.47891,1.7625 -1.43185,-1.20146 z m 1.65028,1.38475 1.43184,1.20146 -1.47891,1.7625 -1.43184,-1.20146 z m -8.26335,-3.55807 1.43184,1.20146 -1.47766,1.761 -1.43184,-1.20146 z m 1.65028,1.38475 1.43184,1.20146 -1.47766,1.76101 -1.43184,-1.20146 z m 1.65029,1.38476 1.43184,1.20146 -1.47766,1.761 -1.43184,-1.20146 z m 1.65029,1.38475 1.43184,1.20146 -1.47766,1.76101 -1.43184,-1.20146 z m 1.65028,1.38475 1.43184,1.20146 -1.47766,1.76101 -1.43184,-1.20146 z m -8.26209,-3.55957 1.43184,1.20146 -1.47891,1.7625 -1.43185,-1.20146 z m 1.65028,1.38475 1.43184,1.20146 -1.47891,1.7625 -1.43185,-1.20146 z m 1.65029,1.38476 1.43184,1.20146 -1.47891,1.7625 -1.43185,-1.20146 z m 1.65029,1.38476 1.43184,1.20146 -1.47891,1.7625 -1.43185,-1.20146 z m 1.65028,1.38475 1.43184,1.20146 -1.47891,1.7625 -1.43184,-1.20146 z m -8.26335,-3.55807 1.43184,1.20146 -1.47766,1.761 -1.43184,-1.20146 z m 1.65028,1.38475 1.43184,1.20146 -1.47766,1.761 -1.43184,-1.20146 z m 1.65029,1.38475 1.43184,1.20147 -1.47766,1.761 -1.43184,-1.20146 z m 1.65029,1.38476 1.43184,1.20146 -1.47766,1.76101 -1.43184,-1.20146 z m 1.65028,1.38475 1.43184,1.20146 -1.47766,1.76101 -1.43184,-1.20146 z m -8.26209,-3.55957 1.43184,1.20146 -1.47892,1.76251 -1.431844,-1.20146 z m 1.65028,1.38475 1.43184,1.20146 -1.47892,1.76251 -1.43184,-1.20146 z m 1.65029,1.38476 1.43184,1.20146 -1.47892,1.76251 -1.43184,-1.20146 z m 1.65029,1.38476 1.43184,1.20146 -1.47892,1.7625 -1.43184,-1.20146 z m 1.65028,1.38475 1.43184,1.20146 -1.47892,1.7625 -1.43184,-1.20146 z m -8.263355,-3.55807 1.431845,1.20146 -1.47766,1.761 -1.431845,-1.20146 z m 1.650285,1.38475 1.43184,1.20146 -1.47766,1.761 -1.431843,-1.20146 z m 1.65029,1.38475 1.43184,1.20146 -1.47766,1.76101 -1.43184,-1.20146 z m 1.65029,1.38476 1.43184,1.20146 -1.47766,1.76101 -1.43184,-1.20146 z m 1.65028,1.38475 1.43184,1.20146 -1.47766,1.76101 -1.43184,-1.20146 z m -8.262102,-3.55956 1.431844,1.20146 -1.478912,1.7625 -1.431845,-1.20146 z m 1.650282,1.38475 1.43184,1.20146 -1.478909,1.7625 -1.431844,-1.20146 z m 1.65029,1.38475 1.43184,1.20146 -1.47891,1.7625 -1.431843,-1.20146 z m 1.65029,1.38476 1.43184,1.20146 -1.47891,1.7625 -1.43184,-1.20146 z m 1.65028,1.38475 1.43185,1.20146 -1.47892,1.7625 -1.43184,-1.20146 z m -8.263346,-3.55808 1.431845,1.20146 -1.47766,1.76101 -1.431844,-1.20146 z m 1.650282,1.38475 1.431845,1.20146 -1.47766,1.76101 -1.431844,-1.20146 z m 1.65029,1.38476 1.431844,1.20146 -1.477659,1.76101 -1.431845,-1.20146 z m 1.650294,1.38476 1.43184,1.20146 -1.47766,1.76101 -1.431844,-1.20146 z m 1.65028,1.38475 1.43184,1.20146 -1.47766,1.76101 -1.43184,-1.20146 z m -8.262102,-3.55957 1.431844,1.20146 -1.478913,1.7625 -1.431844,-1.20146 z m 1.650281,1.38476 1.431845,1.20146 -1.478913,1.7625 -1.431844,-1.20146 z m 1.65029,1.38475 1.431844,1.20146 -1.478913,1.7625 -1.431844,-1.20146 z m 1.65029,1.38476 1.431841,1.20146 -1.47891,1.7625 -1.431844,-1.20146 z m 1.650281,1.38475 1.43184,1.20146 -1.47891,1.7625 -1.431842,-1.20146 z m -8.263353,-3.55807 1.431845,1.20146 -1.477653,1.761 -1.431845,-1.20146 z m 1.650282,1.38475 1.431845,1.20146 -1.477653,1.761 -1.431845,-1.20146 z m 1.65029,1.38476 1.431844,1.20146 -1.477653,1.761 -1.431844,-1.20146 z m 1.650289,1.38476 1.431845,1.20146 -1.477653,1.76099 -1.431845,-1.20146 z m 1.650282,1.38475 1.43184,1.20146 -1.477648,1.76099 -1.431845,-1.20146 z m -8.262093,-3.55958 1.431844,1.20146 -1.478912,1.7625 -1.431845,-1.20146 z m 1.650282,1.38475 1.431844,1.20146 -1.478913,1.7625 -1.431844,-1.20146 z m 1.65029,1.38476 1.431844,1.20146 -1.478913,1.7625 -1.431844,-1.20146 z m 1.650289,1.38476 1.431844,1.20146 -1.478913,1.7625 -1.431844,-1.20146 z m 1.650282,1.38475 1.431844,1.20146 -1.478913,1.7625 -1.431844,-1.20146 z m -8.263353,-3.55807 1.431844,1.20146 -1.478913,1.7625 -1.431844,-1.20146 z m 1.650282,1.38475 1.431844,1.20146 -1.478913,1.7625 -1.431844,-1.20146 z m 1.650289,1.38476 1.431845,1.20146 -1.478913,1.7625 -1.431845,-1.20146 z m 1.65029,1.38475 1.431844,1.20146 -1.478913,1.7625 -1.431844,-1.20146 z m 1.650282,1.38475 1.431844,1.20146 -1.478913,1.7625 -1.431844,-1.20146 z m -8.262093,-3.55957 1.431844,1.20146 -1.478913,1.7625 -1.431844,-1.20146 z m 1.650281,1.38475 1.431845,1.20146 -1.478913,1.7625 -1.431844,-1.20146 z m 1.65029,1.38476 1.431844,1.20146 -1.478913,1.7625 -1.431844,-1.20146 z m 1.65029,1.38476 1.431844,1.20146 -1.478913,1.7625 -1.431844,-1.20146 z m 1.650281,1.38475 1.431845,1.20146 -1.478913,1.7625 -1.431844,-1.20146 z m -8.263353,-3.55807 1.431845,1.20146 -1.478913,1.7625 -1.431845,-1.20146 z m 1.650282,1.38475 1.431845,1.20146 -1.478913,1.7625 -1.431845,-1.20146 z m 1.65029,1.38476 1.431844,1.20146 -1.478913,1.76249 -1.431844,-1.20146 z m 1.650289,1.38475 1.431845,1.20146 -1.478913,1.7625 -1.431845,-1.20146 z m 1.650282,1.38475 1.431845,1.20146 -1.478913,1.7625 -1.431845,-1.20146 z m -8.263353,-3.55807 1.431844,1.20146 -1.477653,1.761 -1.431844,-1.20146 z m 1.650282,1.38475 1.431844,1.20146 -1.477653,1.761 -1.431844,-1.20146 z m 1.65029,1.38476 1.431844,1.20146 -1.477653,1.761 -1.431844,-1.20146 z m 1.650289,1.38476 1.431844,1.20146 -1.477653,1.761 -1.431844,-1.20146 z m 1.650282,1.38475 1.431844,1.20146 -1.477653,1.761 -1.431844,-1.20146 z m -8.262093,-3.55957 1.431844,1.20146 -1.478913,1.7625 -1.431844,-1.20146 z m 1.650282,1.38475 1.431844,1.20146 -1.478913,1.7625 -1.431844,-1.20146 z m 1.650289,1.38475 1.431845,1.20146 -1.478913,1.7625 -1.431845,-1.20146 z m 1.65029,1.38476 1.431844,1.20146 -1.478913,1.7625 -1.431844,-1.20146 z m 1.650282,1.38475 1.431844,1.20146 -1.478913,1.7625 -1.431844,-1.20146 z m -8.263353,-3.55807 1.431844,1.20146 -1.477659,1.76101 -1.431845,-1.20146 z m 1.650282,1.38475 1.431844,1.20146 -1.47766,1.76101 -1.431844,-1.20146 z m 1.650289,1.38476 1.431844,1.20146 -1.477659,1.761 -1.431844,-1.20146 z m 1.65029,1.38476 1.431844,1.20146 -1.477659,1.761 -1.431845,-1.20146 z m 1.650282,1.38475 1.431844,1.20146 -1.47766,1.761 -1.431844,-1.20146 z m -8.262094,-3.55958 1.431845,1.20146 -1.478913,1.7625 -1.431845,-1.20146 z m 1.650282,1.38475 1.431845,1.20146 -1.478913,1.7625 -1.431845,-1.20146 z m 1.65029,1.38476 1.431844,1.20146 -1.478913,1.7625 -1.431844,-1.20146 z m 1.650289,1.38476 1.431845,1.20146 -1.478913,1.7625 -1.431845,-1.20146 z m 1.650282,1.38475 1.431845,1.20146 -1.478913,1.7625 -1.431845,-1.20146 z"
         id="rect3765"
         inkscape:original-d="M 117.92969 113.85547 A 0.14250525 0.14250525 0 0 0 117.78711 113.99805 L 117.78711 176.03906 A 0.14250525 0.14250525 0 0 0 117.92969 176.18164 L 128.70117 176.18164 A 0.14250525 0.14250525 0 0 0 128.84375 176.03906 L 128.84375 113.99805 A 0.14250525 0.14250525 0 0 0 128.70117 113.85547 L 117.92969 113.85547 z M 118.07227 114.14062 L 119.94141 114.14062 L 119.94141 116.43945 L 118.07227 116.43945 L 118.07227 114.14062 z M 120.22656 114.14062 L 122.0957 114.14062 L 122.0957 116.43945 L 120.22656 116.43945 L 120.22656 114.14062 z M 122.38086 114.14062 L 124.25 114.14062 L 124.25 116.43945 L 122.38086 116.43945 L 122.38086 114.14062 z M 124.53516 114.14062 L 126.4043 114.14062 L 126.4043 116.43945 L 124.53516 116.43945 L 124.53516 114.14062 z M 126.68945 114.14062 L 128.55859 114.14062 L 128.55859 116.43945 L 126.68945 116.43945 L 126.68945 114.14062 z M 118.07227 116.72461 L 119.94141 116.72461 L 119.94141 119.02539 L 118.07227 119.02539 L 118.07227 116.72461 z M 120.22656 116.72461 L 122.0957 116.72461 L 122.0957 119.02539 L 120.22656 119.02539 L 120.22656 116.72461 z M 122.38086 116.72461 L 124.25 116.72461 L 124.25 119.02539 L 122.38086 119.02539 L 122.38086 116.72461 z M 124.53516 116.72461 L 126.4043 116.72461 L 126.4043 119.02539 L 124.53516 119.02539 L 124.53516 116.72461 z M 126.68945 116.72461 L 128.55859 116.72461 L 128.55859 119.02539 L 126.68945 119.02539 L 126.68945 116.72461 z M 118.07227 119.31055 L 119.94141 119.31055 L 119.94141 121.60938 L 118.07227 121.60938 L 118.07227 119.31055 z M 120.22656 119.31055 L 122.0957 119.31055 L 122.0957 121.60938 L 120.22656 121.60938 L 120.22656 119.31055 z M 122.38086 119.31055 L 124.25 119.31055 L 124.25 121.60938 L 122.38086 121.60938 L 122.38086 119.31055 z M 124.53516 119.31055 L 126.4043 119.31055 L 126.4043 121.60938 L 124.53516 121.60938 L 124.53516 119.31055 z M 126.68945 119.31055 L 128.55859 119.31055 L 128.55859 121.60938 L 126.68945 121.60938 L 126.68945 119.31055 z M 118.07227 121.89453 L 119.94141 121.89453 L 119.94141 124.19531 L 118.07227 124.19531 L 118.07227 121.89453 z M 120.22656 121.89453 L 122.0957 121.89453 L 122.0957 124.19531 L 120.22656 124.19531 L 120.22656 121.89453 z M 122.38086 121.89453 L 124.25 121.89453 L 124.25 124.19531 L 122.38086 124.19531 L 122.38086 121.89453 z M 124.53516 121.89453 L 126.4043 121.89453 L 126.4043 124.19531 L 124.53516 124.19531 L 124.53516 121.89453 z M 126.68945 121.89453 L 128.55859 121.89453 L 128.55859 124.19531 L 126.68945 124.19531 L 126.68945 121.89453 z M 118.07227 124.48047 L 119.94141 124.48047 L 119.94141 126.78125 L 118.07227 126.78125 L 118.07227 124.48047 z M 120.22656 124.48047 L 122.0957 124.48047 L 122.0957 126.78125 L 120.22656 126.78125 L 120.22656 124.48047 z M 122.38086 124.48047 L 124.25 124.48047 L 124.25 126.78125 L 122.38086 126.78125 L 122.38086 124.48047 z M 124.53516 124.48047 L 126.4043 124.48047 L 126.4043 126.78125 L 124.53516 126.78125 L 124.53516 124.48047 z M 126.68945 124.48047 L 128.55859 124.48047 L 128.55859 126.78125 L 126.68945 126.78125 L 126.68945 124.48047 z M 118.07227 127.06445 L 119.94141 127.06445 L 119.94141 129.36523 L 118.07227 129.36523 L 118.07227 127.06445 z M 120.22656 127.06445 L 122.0957 127.06445 L 122.0957 129.36523 L 120.22656 129.36523 L 120.22656 127.06445 z M 122.38086 127.06445 L 124.25 127.06445 L 124.25 129.36523 L 122.38086 129.36523 L 122.38086 127.06445 z M 124.53516 127.06445 L 126.4043 127.06445 L 126.4043 129.36523 L 124.53516 129.36523 L 124.53516 127.06445 z M 126.68945 127.06445 L 128.55859 127.06445 L 128.55859 129.36523 L 126.68945 129.36523 L 126.68945 127.06445 z M 118.07227 129.65039 L 119.94141 129.65039 L 119.94141 131.95117 L 118.07227 131.95117 L 118.07227 129.65039 z M 120.22656 129.65039 L 122.0957 129.65039 L 122.0957 131.95117 L 120.22656 131.95117 L 120.22656 129.65039 z M 122.38086 129.65039 L 124.25 129.65039 L 124.25 131.95117 L 122.38086 131.95117 L 122.38086 129.65039 z M 124.53516 129.65039 L 126.4043 129.65039 L 126.4043 131.95117 L 124.53516 131.95117 L 124.53516 129.65039 z M 126.68945 129.65039 L 128.55859 129.65039 L 128.55859 131.95117 L 126.68945 131.95117 L 126.68945 129.65039 z M 118.07227 132.23633 L 119.94141 132.23633 L 119.94141 134.53516 L 118.07227 134.53516 L 118.07227 132.23633 z M 120.22656 132.23633 L 122.0957 132.23633 L 122.0957 134.53516 L 120.22656 134.53516 L 120.22656 132.23633 z M 122.38086 132.23633 L 124.25 132.23633 L 124.25 134.53516 L 122.38086 134.53516 L 122.38086 132.23633 z M 124.53516 132.23633 L 126.4043 132.23633 L 126.4043 134.53516 L 124.53516 134.53516 L 124.53516 132.23633 z M 126.68945 132.23633 L 128.55859 132.23633 L 128.55859 134.53516 L 126.68945 134.53516 L 126.68945 132.23633 z M 118.07227 134.82031 L 119.94141 134.82031 L 119.94141 137.12109 L 118.07227 137.12109 L 118.07227 134.82031 z M 120.22656 134.82031 L 122.0957 134.82031 L 122.0957 137.12109 L 120.22656 137.12109 L 120.22656 134.82031 z M 122.38086 134.82031 L 124.25 134.82031 L 124.25 137.12109 L 122.38086 137.12109 L 122.38086 134.82031 z M 124.53516 134.82031 L 126.4043 134.82031 L 126.4043 137.12109 L 124.53516 137.12109 L 124.53516 134.82031 z M 126.68945 134.82031 L 128.55859 134.82031 L 128.55859 137.12109 L 126.68945 137.12109 L 126.68945 134.82031 z M 118.07227 137.40625 L 119.94141 137.40625 L 119.94141 139.70508 L 118.07227 139.70508 L 118.07227 137.40625 z M 120.22656 137.40625 L 122.0957 137.40625 L 122.0957 139.70508 L 120.22656 139.70508 L 120.22656 137.40625 z M 122.38086 137.40625 L 124.25 137.40625 L 124.25 139.70508 L 122.38086 139.70508 L 122.38086 137.40625 z M 124.53516 137.40625 L 126.4043 137.40625 L 126.4043 139.70508 L 124.53516 139.70508 L 124.53516 137.40625 z M 126.68945 137.40625 L 128.55859 137.40625 L 128.55859 139.70508 L 126.68945 139.70508 L 126.68945 137.40625 z M 118.07227 139.99023 L 119.94141 139.99023 L 119.94141 142.29102 L 118.07227 142.29102 L 118.07227 139.99023 z M 120.22656 139.99023 L 122.0957 139.99023 L 122.0957 142.29102 L 120.22656 142.29102 L 120.22656 139.99023 z M 122.38086 139.99023 L 124.25 139.99023 L 124.25 142.29102 L 122.38086 142.29102 L 122.38086 139.99023 z M 124.53516 139.99023 L 126.4043 139.99023 L 126.4043 142.29102 L 124.53516 142.29102 L 124.53516 139.99023 z M 126.68945 139.99023 L 128.55859 139.99023 L 128.55859 142.29102 L 126.68945 142.29102 L 126.68945 139.99023 z M 118.07227 142.57617 L 119.94141 142.57617 L 119.94141 144.875 L 118.07227 144.875 L 118.07227 142.57617 z M 120.22656 142.57617 L 122.0957 142.57617 L 122.0957 144.875 L 120.22656 144.875 L 120.22656 142.57617 z M 122.38086 142.57617 L 124.25 142.57617 L 124.25 144.875 L 122.38086 144.875 L 122.38086 142.57617 z M 124.53516 142.57617 L 126.4043 142.57617 L 126.4043 144.875 L 124.53516 144.875 L 124.53516 142.57617 z M 126.68945 142.57617 L 128.55859 142.57617 L 128.55859 144.875 L 126.68945 144.875 L 126.68945 142.57617 z M 118.07227 145.16016 L 119.94141 145.16016 L 119.94141 147.46094 L 118.07227 147.46094 L 118.07227 145.16016 z M 120.22656 145.16016 L 122.0957 145.16016 L 122.0957 147.46094 L 120.22656 147.46094 L 120.22656 145.16016 z M 122.38086 145.16016 L 124.25 145.16016 L 124.25 147.46094 L 122.38086 147.46094 L 122.38086 145.16016 z M 124.53516 145.16016 L 126.4043 145.16016 L 126.4043 147.46094 L 124.53516 147.46094 L 124.53516 145.16016 z M 126.68945 145.16016 L 128.55859 145.16016 L 128.55859 147.46094 L 126.68945 147.46094 L 126.68945 145.16016 z M 118.07227 147.74609 L 119.94141 147.74609 L 119.94141 150.04492 L 118.07227 150.04492 L 118.07227 147.74609 z M 120.22656 147.74609 L 122.0957 147.74609 L 122.0957 150.04492 L 120.22656 150.04492 L 120.22656 147.74609 z M 122.38086 147.74609 L 124.25 147.74609 L 124.25 150.04492 L 122.38086 150.04492 L 122.38086 147.74609 z M 124.53516 147.74609 L 126.4043 147.74609 L 126.4043 150.04492 L 124.53516 150.04492 L 124.53516 147.74609 z M 126.68945 147.74609 L 128.55859 147.74609 L 128.55859 150.04492 L 126.68945 150.04492 L 126.68945 147.74609 z M 118.07227 150.33008 L 119.94141 150.33008 L 119.94141 152.63086 L 118.07227 152.63086 L 118.07227 150.33008 z M 120.22656 150.33008 L 122.0957 150.33008 L 122.0957 152.63086 L 120.22656 152.63086 L 120.22656 150.33008 z M 122.38086 150.33008 L 124.25 150.33008 L 124.25 152.63086 L 122.38086 152.63086 L 122.38086 150.33008 z M 124.53516 150.33008 L 126.4043 150.33008 L 126.4043 152.63086 L 124.53516 152.63086 L 124.53516 150.33008 z M 126.68945 150.33008 L 128.55859 150.33008 L 128.55859 152.63086 L 126.68945 152.63086 L 126.68945 150.33008 z M 118.07227 152.91602 L 119.94141 152.91602 L 119.94141 155.21484 L 118.07227 155.21484 L 118.07227 152.91602 z M 120.22656 152.91602 L 122.0957 152.91602 L 122.0957 155.21484 L 120.22656 155.21484 L 120.22656 152.91602 z M 122.38086 152.91602 L 124.25 152.91602 L 124.25 155.21484 L 122.38086 155.21484 L 122.38086 152.91602 z M 124.53516 152.91602 L 126.4043 152.91602 L 126.4043 155.21484 L 124.53516 155.21484 L 124.53516 152.91602 z M 126.68945 152.91602 L 128.55859 152.91602 L 128.55859 155.21484 L 126.68945 155.21484 L 126.68945 152.91602 z M 118.07227 155.5 L 119.94141 155.5 L 119.94141 157.80078 L 118.07227 157.80078 L 118.07227 155.5 z M 120.22656 155.5 L 122.0957 155.5 L 122.0957 157.80078 L 120.22656 157.80078 L 120.22656 155.5 z M 122.38086 155.5 L 124.25 155.5 L 124.25 157.80078 L 122.38086 157.80078 L 122.38086 155.5 z M 124.53516 155.5 L 126.4043 155.5 L 126.4043 157.80078 L 124.53516 157.80078 L 124.53516 155.5 z M 126.68945 155.5 L 128.55859 155.5 L 128.55859 157.80078 L 126.68945 157.80078 L 126.68945 155.5 z M 118.07227 158.08594 L 119.94141 158.08594 L 119.94141 160.38672 L 118.07227 160.38672 L 118.07227 158.08594 z M 120.22656 158.08594 L 122.0957 158.08594 L 122.0957 160.38672 L 120.22656 160.38672 L 120.22656 158.08594 z M 122.38086 158.08594 L 124.25 158.08594 L 124.25 160.38672 L 122.38086 160.38672 L 122.38086 158.08594 z M 124.53516 158.08594 L 126.4043 158.08594 L 126.4043 160.38672 L 124.53516 160.38672 L 124.53516 158.08594 z M 126.68945 158.08594 L 128.55859 158.08594 L 128.55859 160.38672 L 126.68945 160.38672 L 126.68945 158.08594 z M 118.07227 160.66992 L 119.94141 160.66992 L 119.94141 162.9707 L 118.07227 162.9707 L 118.07227 160.66992 z M 120.22656 160.66992 L 122.0957 160.66992 L 122.0957 162.9707 L 120.22656 162.9707 L 120.22656 160.66992 z M 122.38086 160.66992 L 124.25 160.66992 L 124.25 162.9707 L 122.38086 162.9707 L 122.38086 160.66992 z M 124.53516 160.66992 L 126.4043 160.66992 L 126.4043 162.9707 L 124.53516 162.9707 L 124.53516 160.66992 z M 126.68945 160.66992 L 128.55859 160.66992 L 128.55859 162.9707 L 126.68945 162.9707 L 126.68945 160.66992 z M 118.07227 163.25586 L 119.94141 163.25586 L 119.94141 165.55664 L 118.07227 165.55664 L 118.07227 163.25586 z M 120.22656 163.25586 L 122.0957 163.25586 L 122.0957 165.55664 L 120.22656 165.55664 L 120.22656 163.25586 z M 122.38086 163.25586 L 124.25 163.25586 L 124.25 165.55664 L 122.38086 165.55664 L 122.38086 163.25586 z M 124.53516 163.25586 L 126.4043 163.25586 L 126.4043 165.55664 L 124.53516 165.55664 L 124.53516 163.25586 z M 126.68945 163.25586 L 128.55859 163.25586 L 128.55859 165.55664 L 126.68945 165.55664 L 126.68945 163.25586 z M 118.07227 165.8418 L 119.94141 165.8418 L 119.94141 168.14062 L 118.07227 168.14062 L 118.07227 165.8418 z M 120.22656 165.8418 L 122.0957 165.8418 L 122.0957 168.14062 L 120.22656 168.14062 L 120.22656 165.8418 z M 122.38086 165.8418 L 124.25 165.8418 L 124.25 168.14062 L 122.38086 168.14062 L 122.38086 165.8418 z M 124.53516 165.8418 L 126.4043 165.8418 L 126.4043 168.14062 L 124.53516 168.14062 L 124.53516 165.8418 z M 126.68945 165.8418 L 128.55859 165.8418 L 128.55859 168.14062 L 126.68945 168.14062 L 126.68945 165.8418 z M 118.07227 168.42578 L 119.94141 168.42578 L 119.94141 170.72656 L 118.07227 170.72656 L 118.07227 168.42578 z M 120.22656 168.42578 L 122.0957 168.42578 L 122.0957 170.72656 L 120.22656 170.72656 L 120.22656 168.42578 z M 122.38086 168.42578 L 124.25 168.42578 L 124.25 170.72656 L 122.38086 170.72656 L 122.38086 168.42578 z M 124.53516 168.42578 L 126.4043 168.42578 L 126.4043 170.72656 L 124.53516 170.72656 L 124.53516 168.42578 z M 126.68945 168.42578 L 128.55859 168.42578 L 128.55859 170.72656 L 126.68945 170.72656 L 126.68945 168.42578 z M 118.07227 171.01172 L 119.94141 171.01172 L 119.94141 173.31055 L 118.07227 173.31055 L 118.07227 171.01172 z M 120.22656 171.01172 L 122.0957 171.01172 L 122.0957 173.31055 L 120.22656 173.31055 L 120.22656 171.01172 z M 122.38086 171.01172 L 124.25 171.01172 L 124.25 173.31055 L 122.38086 173.31055 L 122.38086 171.01172 z M 124.53516 171.01172 L 126.4043 171.01172 L 126.4043 173.31055 L 124.53516 173.31055 L 124.53516 171.01172 z M 126.68945 171.01172 L 128.55859 171.01172 L 128.55859 173.31055 L 126.68945 173.31055 L 126.68945 171.01172 z M 118.07227 173.5957 L 119.94141 173.5957 L 119.94141 175.89648 L 118.07227 175.89648 L 118.07227 173.5957 z M 120.22656 173.5957 L 122.0957 173.5957 L 122.0957 175.89648 L 120.22656 175.89648 L 120.22656 173.5957 z M 122.38086 173.5957 L 124.25 173.5957 L 124.25 175.89648 L 122.38086 175.89648 L 122.38086 173.5957 z M 124.53516 173.5957 L 126.4043 173.5957 L 126.4043 175.89648 L 124.53516 175.89648 L 124.53516 173.5957 z M 126.68945 173.5957 L 128.55859 173.5957 L 128.55859 175.89648 L 126.68945 175.89648 L 126.68945 173.5957 z " />
      <path
         style="fill:#ffffff;stroke:#000000;stroke-width:0.29505;stroke-linecap:butt;stroke-linejoin:round;stroke-miterlimit:4;stroke-dasharray:none;stroke-opacity:1;paint-order:normal"
         d="m 129.11229,109.3709 35.75882,30.00521 -1.06067,1.26406 c -0.1382,0.29636 15.86398,13.31146 15.86398,13.31146 l -0.63612,0.7581 -51.62283,-43.3167 z m 0.75861,0.0168 30.00521,-35.75882 1.26406,1.06067 c 0.29636,0.138198 13.31146,-15.863983 13.31146,-15.863983 l 0.7581,0.636122 -43.3167,51.622831 z m 0.0168,-0.75861 -35.75882,-30.005211 1.06067,-1.264058 C 95.327758,77.063465 79.325577,64.048368 79.325577,64.048368 l 0.636122,-0.7581 51.622831,43.316702 z m -0.75861,-0.0168 -30.005211,35.75882 -1.264058,-1.06067 c -0.296366,-0.1382 -13.311463,15.86398 -13.311463,15.86398 l -0.7581,-0.63612 43.316702,-51.62283 z"
         id="path80"
         sodipodi:nodetypes="ccccccc"
         inkscape:original-d="m 128.96666,108.94141 v 46.67982 h -1.65011 c -0.31586,0.0846 0,20.70896 0,20.70896 h -0.98963 v -67.38882 z" />
    </g>
  </g>
</svg>
