<?xml version="1.0" encoding="UTF-8" standalone="no"?>
<svg
   xmlns:dc="http://purl.org/dc/elements/1.1/"
   xmlns:cc="http://creativecommons.org/ns#"
   xmlns:rdf="http://www.w3.org/1999/02/22-rdf-syntax-ns#"
   xmlns:svg="http://www.w3.org/2000/svg"
   xmlns="http://www.w3.org/2000/svg"
   xmlns:xlink="http://www.w3.org/1999/xlink"
   xmlns:sodipodi="http://sodipodi.sourceforge.net/DTD/sodipodi-0.dtd"
   xmlns:inkscape="http://www.inkscape.org/namespaces/inkscape"
   width="128"
   height="128"
   viewBox="64 64 128 128"
   version="1.1"
   id="svg8"
   inkscape:version="1.0.2 (e86c8708, 2021-01-15)"
   sodipodi:docname="inkscape.svg">
  <defs
     id="defs2">
    <marker
       style="overflow:visible;"
       id="Arrow1Lend"
       refX="0.0"
       refY="0.0"
       orient="auto"
       inkscape:stockid="Arrow1Lend"
       inkscape:isstock="true">
      <path
         transform="scale(0.8) rotate(180) translate(12.5,0)"
         style="fill-rule:evenodd;stroke:#ffffff;stroke-width:1pt;stroke-opacity:1;fill:#ffffff;fill-opacity:1"
         d="M 0.0,0.0 L 5.0,-5.0 L -12.5,0.0 L 5.0,5.0 L 0.0,0.0 z "
         id="path2056" />
    </marker>
    <marker
       style="overflow:visible"
       id="Arrow1Lstart"
       refX="0.0"
       refY="0.0"
       orient="auto"
       inkscape:stockid="Arrow1Lstart"
       inkscape:isstock="true">
      <path
         transform="scale(0.8) translate(12.5,0)"
         style="fill-rule:evenodd;stroke:#000000;stroke-width:1.0pt"
         d="M 0.0,0.0 L 5.0,-5.0 L -12.5,0.0 L 5.0,5.0 L 0.0,0.0 z "
         id="path2053" />
    </marker>
    <inkscape:path-effect
       effect="mirror_symmetry"
       start_point="135.92399,131.68837"
       end_point="135.92399,167.74443"
       center_point="135.92399,149.7164"
       id="path-effect2047"
       is_visible="true"
       lpeversion="1"
       mode="vertical"
       discard_orig_path="false"
       fuse_paths="false"
       oposite_fuse="false"
       split_items="false" />
    <linearGradient
       inkscape:collect="always"
       id="linearGradient1885">
      <stop
         style="stop-color:#ffffff;stop-opacity:0"
         offset="0"
         id="stop1881" />
      <stop
         style="stop-color:#000000;stop-opacity:0;"
         offset="1"
         id="stop1883" />
    </linearGradient>
    <linearGradient
       inkscape:collect="always"
       id="linearGradient1766">
      <stop
         style="stop-color:#126fdc;stop-opacity:0.2"
         offset="0"
         id="stop1762" />
      <stop
         style="stop-color:#fffbff;stop-opacity:0"
         offset="1"
         id="stop1764" />
    </linearGradient>
    <inkscape:path-effect
       effect="copy_rotate"
       starting_point="0,0"
       origin="129.5,109"
       id="path-effect1760"
       is_visible="true"
       lpeversion="1"
       method="normal"
       num_copies="4"
       starting_angle="50"
       rotation_angle="90"
       gap="-0.01"
       copies_to_360="true"
       mirror_copies="false"
       split_items="false" />
    <inkscape:path-effect
       effect="copy_rotate"
       starting_point="0,0"
       origin="130,101"
       id="path-effect3905"
       is_visible="true"
       lpeversion="1"
       method="normal"
       num_copies="1"
       starting_angle="50"
       rotation_angle="90"
       gap="-0.01"
       copies_to_360="true"
       mirror_copies="false"
       split_items="false" />
    <inkscape:path-effect
       effect="copy_rotate"
       starting_point="0,0"
       origin="17,-2"
       id="path-effect3812"
       is_visible="true"
       lpeversion="1"
       method="normal"
       num_copies="1"
       starting_angle="0"
       rotation_angle="60"
       gap="-0.01"
       copies_to_360="true"
       mirror_copies="false"
       split_items="false" />
    <inkscape:path-effect
       effect="mirror_symmetry"
       start_point="169.48317,160.72985"
       end_point="169.48317,167.89546"
       center_point="169.48317,164.31266"
       id="path-effect855"
       is_visible="true"
       lpeversion="1"
       mode="vertical"
       discard_orig_path="false"
       fuse_paths="false"
       oposite_fuse="false"
       split_items="false" />
    <inkscape:path-effect
       effect="mirror_symmetry"
       start_point="171.74548,160.42147"
       end_point="171.74548,161.78047"
       center_point="171.74548,161.10097"
       id="path-effect51"
       is_visible="true"
       lpeversion="1"
       mode="vertical"
       discard_orig_path="false"
       fuse_paths="false"
       oposite_fuse="false"
       split_items="false" />
    <inkscape:path-effect
       effect="mirror_symmetry"
       start_point="158.39875,167.76792"
       end_point="158.39875,175.4577"
       center_point="158.39875,171.61281"
       id="path-effect50"
       is_visible="true"
       lpeversion="1"
       mode="vertical"
       discard_orig_path="false"
       fuse_paths="false"
       oposite_fuse="false"
       split_items="false" />
    <inkscape:path-effect
       effect="copy_rotate"
       starting_point="129.75437,98.029039"
       origin="128.75437,98.03"
       id="path-effect905"
       is_visible="true"
       lpeversion="1"
       method="normal"
       num_copies="1"
       starting_angle="0"
       rotation_angle="90"
       gap="-0.01"
       copies_to_360="false"
       mirror_copies="false"
       split_items="false" />
    <inkscape:path-effect
       effect="mirror_symmetry"
       start_point="170.88044,160.41755"
       end_point="170.88044,192.00126"
       center_point="170.88044,176.20941"
       id="path-effect78"
       is_visible="true"
       lpeversion="1"
       mode="vertical"
       discard_orig_path="false"
       fuse_paths="false"
       oposite_fuse="false"
       split_items="false" />
    <inkscape:path-effect
       effect="mirror_symmetry"
       start_point="153.80754,68.13"
       end_point="150.21,165.04"
       center_point="153.80754,117.48634"
       id="path-effect76"
       is_visible="true"
       lpeversion="1"
       mode="vertical"
       discard_orig_path="false"
       fuse_paths="false"
       oposite_fuse="false"
       split_items="false" />
    <linearGradient
       inkscape:collect="always"
       xlink:href="#linearGradient1766"
       id="linearGradient1768"
       x1="99.233444"
       y1="116.34605"
       x2="140.27876"
       y2="111.54804"
       gradientUnits="userSpaceOnUse" />
    <radialGradient
       inkscape:collect="always"
       xlink:href="#linearGradient1885"
       id="radialGradient1887"
       cx="128"
       cy="109.25253"
       fx="128"
       fy="109.25253"
       r="64"
       gradientUnits="userSpaceOnUse"
       gradientTransform="matrix(1.0056038,0,0,1,-0.71729036,2.5999975e-7)" />
  </defs>
  <sodipodi:namedview
     id="base"
     pagecolor="#000000"
     bordercolor="#666666"
     borderopacity="1.0"
     inkscape:pageopacity="1"
     inkscape:pageshadow="2"
     inkscape:zoom="2.8475864"
     inkscape:cx="15.433525"
     inkscape:cy="108.85711"
     inkscape:document-units="mm"
     inkscape:current-layer="layer1"
     inkscape:document-rotation="0"
     showgrid="false"
     inkscape:window-width="1440"
     inkscape:window-height="847"
     inkscape:window-x="0"
     inkscape:window-y="25"
     inkscape:window-maximized="0"
     units="px"
     width="128px"
     inkscape:pagecheckerboard="false"
     showborder="true"
     borderlayer="false"
     inkscape:showpageshadow="false"
     showguides="true"
     inkscape:guide-bbox="true"
     inkscape:snap-global="true">
    <sodipodi:guide
       position="64,64"
       orientation="-1,0"
       id="guide10"
       inkscape:label="Center"
       inkscape:locked="true"
       inkscape:color="rgb(222,221,218)" />
    <sodipodi:guide
       position="64,-0.0012598425"
       orientation="0,1"
       id="guide12"
       inkscape:label=""
       inkscape:locked="true"
       inkscape:color="rgb(192,97,203)" />
    <sodipodi:guide
       position="64,128"
       orientation="0,1"
       id="guide14"
       inkscape:label=""
       inkscape:locked="true"
       inkscape:color="rgb(192,97,203)" />
  </sodipodi:namedview>
  <metadata
     id="metadata5">
    <rdf:RDF>
      <cc:Work
         rdf:about="">
        <dc:format>image/svg+xml</dc:format>
        <dc:type
           rdf:resource="http://purl.org/dc/dcmitype/StillImage" />
        <dc:title />
      </cc:Work>
    </rdf:RDF>
  </metadata>
  <g
     inkscape:groupmode="layer"
     id="layer2"
     inkscape:label="BG">
    <rect
       style="opacity:1;fill:#000000;fill-opacity:1;stroke:#ffffff;stroke-width:0;stroke-linecap:butt;stroke-linejoin:bevel;stroke-miterlimit:4;stroke-dasharray:none;stroke-dashoffset:0"
       id="rect1985"
       width="128"
       height="128"
       x="64"
       y="64" />
    <rect
       style="opacity:0;fill:url(#radialGradient1887);fill-opacity:1;stroke:#ffffff;stroke-width:0;stroke-linecap:butt;stroke-linejoin:bevel;stroke-miterlimit:4;stroke-dasharray:none;stroke-dashoffset:0"
       id="rect852"
       width="128"
       height="128"
       x="64"
       y="64" />
  </g>
  <g
     inkscape:label="Layer 1"
     inkscape:groupmode="layer"
     id="layer1">
    <path
       style="opacity:1;fill:url(#linearGradient1768);fill-opacity:1;stroke:#ffffff;stroke-width:1.99937;stroke-linecap:round;stroke-linejoin:round;stroke-miterlimit:4;stroke-dasharray:none;stroke-opacity:1;paint-order:normal"
       inkscape:path-effect="#path-effect76"
       inkscape:original-d="m 127.999,80.067195 c 1.62117,8.486558 10.83458,8.561083 14.68453,12.233534 3.84995,3.672452 6.17566,9.666241 3.23602,9.664241 l -2.61206,-0.002 -6.01183,4.51873 c -0.54839,4.10693 0.42459,9.06555 1.16039,14.27655 1.73829,12.31073 7.89957,30.38716 9.30089,34.47113 0.61276,1.71956 1.05704,3.50359 2.28888,4.55517 l 12.11146,10.33916 2.39669,14.43648 h -36.55371"
       transform="translate(0,10.076265)"
       d="m 127.999,80.067195 c 1.62117,8.486558 10.83458,8.561083 14.68453,12.233534 3.84995,3.672452 6.17566,9.666241 3.23602,9.664241 l -2.61206,-0.002 -6.01183,4.51873 c -0.54839,4.10693 0.42459,9.06555 1.16039,14.27655 1.73829,12.31073 7.89957,30.38716 9.30089,34.47113 0.61276,1.71956 1.05704,3.50359 2.28888,4.55517 l 12.11146,10.33916 2.39669,14.43648 H 128.00026 M 128.001,80.067195 c -1.62117,8.486558 -10.83458,8.561083 -14.68453,12.233534 -3.84995,3.672452 -6.17566,9.666241 -3.23602,9.664241 l 2.61206,-0.002 6.01183,4.51873 c 0.54839,4.10693 -0.42459,9.06555 -1.16039,14.27655 -1.73829,12.31073 -7.89957,30.38716 -9.30089,34.47113 -0.61276,1.71956 -1.05704,3.50359 -2.28888,4.55517 l -12.11146,10.33916 -2.39669,14.43648 h 36.55371"
       id="path1772" />
    <path
       style="fill:none;stroke:#ffffff;stroke-width:0.7;stroke-linecap:butt;stroke-linejoin:miter;stroke-miterlimit:4;stroke-dasharray:none;stroke-opacity:1"
       d="m 128,160.59825 c 7.80424,0.12425 12.54407,-0.0293 21.54032,0.12525 11.48452,0.19727 22.20516,1.05697 22.20516,1.05697 M 128,160.59825 c -7.80424,0.12425 -12.54407,-0.0293 -21.54032,0.12525 -11.48452,0.19727 -22.20516,1.05697 -22.20516,1.05697"
       id="path58"
       sodipodi:nodetypes="csc"
       inkscape:path-effect="#path-effect51"
       inkscape:original-d="m 128,160.59825 c 7.80424,0.12425 12.54407,-0.0293 21.54032,0.12525 11.48452,0.19727 22.20516,1.05697 22.20516,1.05697" />
    <path
       style="fill:none;fill-opacity:1;stroke:#ffffff;stroke-width:1.99937;stroke-linecap:round;stroke-linejoin:round;stroke-miterlimit:4;stroke-dasharray:none;stroke-opacity:1;paint-order:normal"
       inkscape:path-effect="#path-effect76"
       inkscape:original-d="m 171.74548,151.70465 -2.16381,5.7396 c -5.38641,0.31171 -14.9974,0.1829 -21.07277,0.14673 -3.21774,-0.0192 -14.21226,0.15302 -20.5089,-0.009"
       transform="translate(0,10.076265)"
       d="m 171.74548,151.70465 -2.16381,5.7396 c -5.38641,0.31171 -14.9974,0.1829 -21.07277,0.14673 -3.21774,-0.0192 -14.21226,0.15302 -20.5089,-0.009 m -43.74548,-5.87733 2.16381,5.7396 c 5.38641,0.31171 14.9974,0.1829 21.07277,0.14673 3.21774,-0.0192 14.21226,0.15302 20.5089,-0.009"
       id="path70"
       sodipodi:nodetypes="cccc" />
    <g
       id="g1758"
       inkscape:path-effect="#path-effect1760"
       style="opacity:1"
       transform="matrix(0.84731285,0,0,0.84731285,19.697505,16.574317)">
      <g
         inkscape:label="MajorXGridlines"
         id="g3715"
         style="stroke:#ffffff"
         transform="matrix(0.56996406,0,0,0.56996406,118.09219,116.14716)" />
      <g
         inkscape:label="MajorYGridlines"
         id="g3763"
         style="stroke:#ffffff"
         transform="matrix(0.56996406,0,0,0.56996406,118.09219,116.14716)" />
      <path
         id="rect3765"
         style="fill:#000000;fill-opacity:0.5;stroke:#ffffff;stroke-width:0.284982;stroke-linecap:butt;stroke-linejoin:round"
         inkscape:label="Border"
         d="m 125.89127,121.07576 6.92344,-8.25104 47.52603,39.87907 -6.92345,8.25104 z m 45.54578,38.21745 6.92343,-8.25102 m -8.90371,6.58937 6.92344,-8.25102 m -8.90368,6.5894 6.92344,-8.25102 m -8.90367,6.58941 6.92343,-8.25102 m -8.90371,6.58937 6.92343,-8.25103 m -8.90367,6.58941 6.92343,-8.25102 m -8.90366,6.58941 6.92343,-8.25103 m -8.90372,6.58937 6.92344,-8.25102 m -8.90367,6.58941 6.92343,-8.25103 m -8.90367,6.58941 6.92343,-8.25103 m -8.90371,6.58938 6.92343,-8.25103 m -8.90366,6.58942 6.92343,-8.25103 m -8.90367,6.58941 6.92343,-8.25103 m -8.90371,6.58938 6.92343,-8.25103 m -8.90366,6.58942 6.92343,-8.25103 m -8.90367,6.58941 6.92343,-8.25103 m -8.90371,6.58938 6.92343,-8.25103 m -8.90367,6.58941 6.92343,-8.25103 m -8.90366,6.58941 6.92343,-8.25102 m -8.90371,6.58937 6.92343,-8.25102 m -8.90367,6.5894 6.92343,-8.25102 m -8.90368,6.5894 6.92343,-8.25103 m -8.90369,6.5894 6.92344,-8.25103 m -3.36493,-0.0114 47.52585,39.87893 m -48.91053,-38.22873 47.52585,39.87892 m -48.91054,-38.22871 47.52585,39.87893 m -48.91054,-38.22872 47.52585,39.87892 m -33.22605,-46.69574 -8.25104,-6.92344 39.87907,-47.526028 8.25104,6.923446 z m 38.21745,-45.545781 -8.25102,-6.923434 m 6.58937,8.903712 -8.25102,-6.923433 m 6.5894,8.903673 -8.25102,-6.923433 m 6.58941,8.903666 -8.25102,-6.923433 m 6.58937,8.903711 -8.25103,-6.923433 m 6.58941,8.903674 -8.25102,-6.923434 m 6.58941,8.903666 -8.25103,-6.923433 m 6.58937,8.903719 -8.25102,-6.923433 m 6.58941,8.903666 -8.25103,-6.923433 m 6.58941,8.903673 -8.25103,-6.923433 m 6.58938,8.903711 -8.25103,-6.923433 m 6.58942,8.903666 -8.25103,-6.923433 m 6.58941,8.903673 -8.25103,-6.923433 m 6.58938,8.903712 -8.25103,-6.923433 m 6.58942,8.903665 -8.25103,-6.923433 m 6.58941,8.903674 -8.25103,-6.923434 m 6.58938,8.903712 -8.25103,-6.923433 m 6.58941,8.903672 -8.25103,-6.923432 m 6.58941,8.903662 -8.25102,-6.923429 m 6.58937,8.903709 -8.25102,-6.923431 m 6.5894,8.903671 -8.25102,-6.923431 m 6.5894,8.903681 -8.25103,-6.92343 m 6.5894,8.90369 -8.25103,-6.92344 m -0.0114,3.36493 39.87893,-47.525848 m -38.22873,48.910528 39.87892,-47.525848 m -38.22871,48.910538 39.87893,-47.525845 m -38.22872,48.910535 39.87892,-47.525849 m -46.69574,33.226047 -6.92344,8.251042 -47.526028,-39.879071 6.923446,-8.251042 z M 87.562949,58.706786 80.639515,66.957812 m 8.903712,-6.589375 -6.923433,8.251026 m 8.903673,-6.589407 -6.923433,8.251026 m 8.903666,-6.589414 -6.923433,8.251027 m 8.903711,-6.589376 -6.923433,8.251027 m 8.903674,-6.589408 -6.923434,8.251026 m 8.903666,-6.589414 -6.923433,8.251027 m 8.903722,-6.589369 -6.923436,8.251026 m 8.903666,-6.589414 -6.923433,8.251027 m 8.903673,-6.589408 -6.923433,8.251026 m 8.903713,-6.589375 -6.92343,8.251026 m 8.90366,-6.589414 -6.92343,8.251027 m 8.90367,-6.589408 -6.92343,8.251027 m 8.90371,-6.589376 -6.92343,8.251027 m 8.90366,-6.589414 -6.92343,8.251026 m 8.90367,-6.589408 -6.92343,8.251027 m 8.90371,-6.589376 -6.92343,8.251027 m 8.90367,-6.589408 -6.92343,8.251027 m 8.90366,-6.589414 -6.92343,8.251026 m 8.90371,-6.589375 -6.92343,8.251026 m 8.90367,-6.589408 -6.92343,8.251025 m 8.90368,-6.589399 -6.92343,8.251029 m 8.90369,-6.589398 -6.92344,8.251028 m 3.36493,0.0114 L 80.044132,63.646144 M 128.95466,101.87487 81.428812,61.995946 M 130.33935,100.22466 82.813505,60.345733 M 131.72404,98.574451 84.198191,58.695528 m 33.226049,46.695742 8.25104,6.92344 -39.879071,47.52603 -8.251042,-6.92345 z m -38.217454,45.54578 8.251026,6.92343 m -6.589375,-8.90371 8.251026,6.92344 m -6.589407,-8.90368 8.251026,6.92344 m -6.589414,-8.90367 8.251027,6.92343 m -6.589376,-8.90371 8.251027,6.92343 m -6.589408,-8.90367 8.251026,6.92343 m -6.589414,-8.90366 8.251027,6.92343 m -6.589369,-8.90372 8.251026,6.92344 m -6.589414,-8.90367 8.25103,6.92343 m -6.589411,-8.90367 8.251031,6.92343 m -6.58938,-8.90371 8.25103,6.92343 m -6.589418,-8.90366 8.251028,6.92343 m -6.589409,-8.90367 8.251029,6.92343 m -6.58938,-8.90371 8.25103,6.92343 m -6.58942,-8.90366 8.25103,6.92343 m -6.58941,-8.90367 8.25103,6.92343 m -6.58938,-8.90371 8.25103,6.92343 m -6.58941,-8.90367 8.25103,6.92343 m -6.58941,-8.90366 8.25102,6.92343 m -6.58937,-8.90371 8.25102,6.92343 m -6.5894,-8.90367 8.25102,6.92343 m -6.5894,-8.90368 8.25103,6.92343 m -6.5894,-8.90369 8.25103,6.92344 m 0.0114,-3.36493 -39.878926,47.52585 M 122.37487,109.54534 82.495946,157.07119 M 120.72466,108.16065 80.845733,155.6865 m 38.228717,-48.91054 -39.878922,47.52585"
         inkscape:original-d="m 117.92978,113.9977 h 10.77097 v 62.04082 h -10.77097 z m 0,59.4558 h 10.77095 m -10.77095,-2.58507 h 10.77095 m -10.77095,-2.58502 h 10.77095 m -10.77095,-2.58501 h 10.77095 m -10.77095,-2.58507 h 10.77095 m -10.77095,-2.58502 h 10.77095 m -10.77095,-2.58501 h 10.77095 m -10.77095,-2.58508 h 10.77095 m -10.77095,-2.58501 h 10.77095 m -10.77095,-2.58502 h 10.77095 m -10.77095,-2.58507 h 10.77095 m -10.77095,-2.58501 h 10.77095 m -10.77095,-2.58502 h 10.77095 m -10.77095,-2.58507 h 10.77095 m -10.77095,-2.58501 h 10.77095 m -10.77095,-2.58502 h 10.77095 m -10.77095,-2.58507 h 10.77095 m -10.77095,-2.58502 h 10.77095 m -10.77095,-2.58501 h 10.77095 m -10.77095,-2.58507 h 10.77095 m -10.77095,-2.58502 h 10.77095 m -10.77095,-2.58503 h 10.77095 m -10.77095,-2.58504 h 10.77095 m -2.15418,-2.58503 v 62.04059 m -2.15418,-62.04059 v 62.04059 m -2.1542,-62.04059 v 62.04059 m -2.15419,-62.04059 v 62.04059" />
      <path
         style="fill:#ffffff;stroke:#000000;stroke-width:0.29505;stroke-linecap:butt;stroke-linejoin:round;stroke-miterlimit:4;stroke-dasharray:none;stroke-opacity:1;paint-order:normal"
         d="m 128.65802,109.28815 32.35095,27.14567 -0.84601,1.14575 20.51045,17.21031 -0.50047,0.59645 -52.92914,-44.41283 z m 1.13013,0.55383 27.14567,-32.350949 1.14575,0.846004 17.21031,-20.510449 0.59645,0.500474 -44.41283,52.92914 z m 0.55383,-1.13013 L 97.991031,81.566181 98.837035,80.420426 78.326586,63.210115 78.82706,62.613673 131.7562,107.0265 Z m -1.13013,-0.55383 -27.14567,32.35095 -1.14575,-0.84601 -17.210315,20.51045 -0.596442,-0.50047 44.412827,-52.92914 z"
         id="path80"
         sodipodi:nodetypes="ccccccc"
         inkscape:original-d="m 128.73805,108.54023 v 42.23116 l -1.4215,0.0884 v 26.77449 h -0.7786 v -69.09409 z" />
    </g>
    <path
       style="fill:none;stroke:#ffffff;stroke-width:1px;stroke-linecap:butt;stroke-linejoin:miter;stroke-opacity:1"
       d="m 163.77375,168.39292 -3.84239,9.5015 -4.83212,-3.9334 2.79969,-6.25835 -3.22077,0.28197 -2.0174,4.11039 m -60.43451,-3.70211 3.84239,9.5015 4.83212,-3.9334 -2.79969,-6.25835 3.22077,0.28197 2.0174,4.11039"
       id="path43"
       sodipodi:nodetypes="cccccc"
       inkscape:path-effect="#path-effect50"
       inkscape:original-d="m 163.77375,168.39292 -3.84239,9.5015 -4.83212,-3.9334 2.79969,-6.25835 -3.22077,0.28197 -2.0174,4.11039" />
    <path
       style="fill:none;stroke:#ffffff;stroke-width:0.5;stroke-linecap:butt;stroke-linejoin:round;stroke-miterlimit:4;stroke-dasharray:none;stroke-opacity:1"
       d="m 128,167.65779 8.3842,-6.92794 8.98569,7.16561 6.82353,-7.07685 5.70551,6.88406 4.93572,-6.51058 2.97124,5.96239 3.67728,-5.46623 M 128,167.65779 l -8.3842,-6.92794 -8.98569,7.16561 -6.82353,-7.07685 -5.70551,6.88406 -4.93572,-6.51058 -2.97124,5.96239 -3.67728,-5.46623"
       id="path853"
       sodipodi:nodetypes="cccccccc"
       inkscape:path-effect="#path-effect855"
       inkscape:original-d="m 128,167.65779 8.3842,-6.92794 8.98569,7.16561 6.82353,-7.07685 5.70551,6.88406 4.93572,-6.51058 2.97124,5.96239 3.67728,-5.46623" />
    <g
       id="g2045"
       inkscape:path-effect="#path-effect2047"
       style="fill:#000000;opacity:1">
      <path
         style="fill:#000000;stroke:#ffffff;stroke-width:1px;stroke-linecap:round;stroke-linejoin:miter;stroke-opacity:1"
         d="m 128,176.88463 c 4.98438,0.11457 5.17779,2.95196 5.18479,7.29977 v 10.68822 H 128 m 0,-17.98799 c -4.98438,0.11457 -5.17779,2.95196 -5.18479,7.29977 v 10.68822 H 128"
         id="path2039"
         inkscape:original-d="m 128,176.88463 c 4.98438,0.11457 5.17779,2.95196 5.18479,7.29977 v 10.68822 l -5.18479,0"
         sodipodi:nodetypes="ccc" />
      <path
         style="opacity:1;fill:#000000;stroke:#ffffff;stroke-width:0.6;stroke-linecap:round;stroke-linejoin:round;stroke-miterlimit:0.4;stroke-dasharray:none;stroke-opacity:1"
         d="m 128,151.46786 h 3.47003 L 131.14829,142.58935 128,141.85877 m 0,9.60909 h -3.47003 l 0.32174,-8.87851 L 128,141.85877"
         id="path2041"
         sodipodi:nodetypes="cccc"
         inkscape:original-d="m 128,151.46786 h 3.47003 L 131.14829,142.58935 128,141.85877" />
      <path
         style="fill:#000000;stroke:#ffffff;stroke-width:0.5;stroke-linecap:round;stroke-linejoin:round;stroke-miterlimit:4;stroke-dasharray:none;stroke-opacity:1"
         d="m 128,130.29638 2.35131,0.43919 0.26516,6.57023 H 128 m 0,-7.00942 -2.35131,0.43919 -0.26516,6.57023 H 128"
         id="path1165"
         inkscape:original-d="m 128,130.29638 2.35131,0.43919 0.26516,6.57023 H 128"
         sodipodi:nodetypes="cccc" />
    </g>
  </g>
</svg>
